<svg id="svg" xmlns="http://www.w3.org/2000/svg" xmlns:xlink="http://www.w3.org/1999/xlink" width="400" height="102.12765957446808" viewBox="0, 0, 400,102.12765957446808"><g id="svgg"><path id="path0" d="M166.167 25.114 C 163.255 25.368,160.417 25.907,158.917 26.490 C 157.975 26.855,156.167 27.745,156.167 27.843 C 156.167 27.905,155.874 28.150,155.516 28.386 C 152.957 30.080,150.918 36.897,151.813 40.771 C 152.399 43.308,152.561 43.855,153.041 44.917 C 154.028 47.098,155.419 48.563,157.371 49.480 C 159.516 50.488,160.352 50.833,160.651 50.833 C 160.802 50.833,161.074 50.930,161.255 51.047 C 161.435 51.165,162.033 51.403,162.583 51.577 C 163.785 51.957,164.167 52.250,164.167 52.792 C 164.167 53.296,163.683 55.027,163.482 55.242 C 163.400 55.329,163.333 55.559,163.333 55.754 C 163.333 55.949,163.146 56.285,162.917 56.500 C 162.688 56.715,162.500 57.010,162.500 57.156 C 162.500 57.301,162.350 57.513,162.167 57.628 C 161.983 57.742,161.833 57.936,161.833 58.059 C 161.833 58.181,161.685 58.415,161.505 58.579 C 161.197 58.858,159.500 61.557,159.500 61.768 C 159.500 61.821,159.178 62.289,158.784 62.807 C 158.390 63.326,157.923 63.994,157.748 64.292 C 157.572 64.590,157.377 64.833,157.315 64.833 C 157.254 64.833,157.157 65.015,157.101 65.237 C 157.046 65.459,156.826 65.853,156.613 66.112 C 156.401 66.371,155.939 67.108,155.586 67.750 C 154.959 68.892,154.688 69.296,153.823 70.381 C 151.396 73.425,152.097 74.464,156.463 74.296 L 158.558 74.216 159.026 73.692 C 159.283 73.405,159.543 72.962,159.604 72.710 C 159.665 72.457,159.852 72.054,160.020 71.813 C 160.188 71.573,160.402 71.174,160.497 70.926 C 160.591 70.678,160.893 70.148,161.167 69.749 C 161.442 69.350,161.667 68.950,161.667 68.860 C 161.667 68.770,161.967 68.317,162.333 67.853 C 162.700 67.389,163.000 66.951,163.000 66.879 C 163.000 66.808,163.268 66.374,163.596 65.916 C 163.923 65.458,164.288 64.858,164.406 64.583 C 164.524 64.308,164.781 63.940,164.977 63.766 C 165.173 63.591,165.333 63.376,165.333 63.289 C 165.333 63.087,166.708 60.851,167.511 59.747 C 167.846 59.288,168.167 58.763,168.225 58.581 C 168.282 58.399,168.509 58.057,168.728 57.821 C 168.946 57.585,169.174 57.239,169.234 57.051 C 169.293 56.864,169.490 56.577,169.671 56.413 C 169.852 56.249,170.000 56.031,170.000 55.928 C 170.000 55.707,171.494 53.568,171.992 53.076 C 172.696 52.380,173.749 52.307,182.251 52.363 C 188.472 52.405,190.335 52.465,190.634 52.636 C 191.091 52.896,191.665 53.787,191.666 54.237 C 191.666 54.413,191.798 54.702,191.958 54.879 C 192.363 55.326,192.491 68.695,192.113 71.047 C 191.677 73.758,192.030 74.186,194.787 74.298 C 198.604 74.453,198.368 75.047,198.314 65.424 C 198.259 55.680,198.252 56.431,198.403 55.167 C 198.622 53.319,199.040 52.685,200.121 52.560 C 203.369 52.182,216.823 52.353,217.953 52.787 C 218.357 52.942,221.810 57.860,222.344 59.041 C 222.608 59.623,222.956 60.201,223.110 60.314 C 223.188 60.371,223.469 60.754,223.735 61.167 C 224.290 62.027,224.512 62.360,225.472 63.770 C 225.854 64.331,226.167 64.955,226.167 65.156 C 226.167 65.447,226.236 65.501,226.500 65.417 C 226.777 65.329,226.833 65.387,226.833 65.761 C 226.833 66.009,227.095 66.574,227.417 67.022 C 227.737 67.469,228.000 67.896,228.000 67.971 C 228.000 68.046,228.254 68.465,228.565 68.902 C 228.875 69.339,229.334 70.177,229.583 70.765 C 229.833 71.353,230.104 71.833,230.185 71.833 C 230.267 71.833,230.333 71.946,230.333 72.084 C 230.333 72.222,230.483 72.614,230.667 72.956 C 230.850 73.299,231.000 73.656,231.000 73.751 C 231.000 74.241,234.764 74.523,236.458 74.160 C 238.013 73.827,237.831 71.797,236.099 70.179 C 235.861 69.957,235.666 69.695,235.666 69.596 C 235.665 69.497,235.328 68.929,234.917 68.333 C 234.505 67.737,234.168 67.182,234.168 67.098 C 234.166 66.880,233.244 65.444,232.216 64.061 C 231.731 63.407,231.333 62.789,231.333 62.687 C 231.333 62.585,231.070 62.209,230.747 61.852 C 230.425 61.496,229.930 60.764,229.646 60.227 C 229.363 59.690,228.952 59.058,228.732 58.824 C 228.513 58.590,228.333 58.280,228.333 58.136 C 228.333 57.992,228.224 57.783,228.090 57.673 C 227.710 57.357,226.431 54.981,226.293 54.333 C 225.944 52.694,225.941 52.737,226.440 52.206 C 226.882 51.738,229.184 50.833,229.936 50.833 C 230.072 50.833,230.461 50.685,230.800 50.503 C 231.139 50.322,232.003 49.902,232.720 49.569 C 233.437 49.237,234.064 48.861,234.113 48.733 C 234.162 48.605,234.292 48.500,234.401 48.500 C 234.729 48.500,235.735 47.328,236.549 46.000 C 239.301 41.505,239.124 34.011,236.171 29.980 C 235.258 28.735,233.652 27.497,232.183 26.908 C 231.578 26.665,230.953 26.399,230.794 26.317 C 230.635 26.234,230.349 26.167,230.158 26.167 C 229.967 26.167,229.662 26.087,229.479 25.989 C 229.296 25.891,228.007 25.630,226.615 25.410 L 224.083 25.009 196.250 24.963 C 175.879 24.929,167.813 24.969,166.167 25.114 M190.780 29.915 C 191.151 30.175,191.667 31.452,191.667 32.113 C 191.667 32.326,191.734 32.500,191.817 32.500 C 192.329 32.500,192.614 42.196,192.153 43.917 C 191.181 47.540,192.405 47.239,178.417 47.296 C 165.884 47.347,164.432 47.245,163.144 46.226 C 163.019 46.127,162.724 46.000,162.488 45.944 C 162.252 45.888,161.780 45.652,161.439 45.421 C 161.098 45.189,160.754 45.000,160.675 45.000 C 160.390 45.000,158.960 43.244,158.509 42.340 C 157.490 40.299,157.160 36.236,157.902 34.865 C 158.036 34.618,158.185 34.225,158.234 33.990 C 158.445 32.986,160.177 31.275,161.205 31.057 C 161.455 31.003,161.745 30.856,161.850 30.730 C 161.955 30.603,162.275 30.497,162.562 30.494 C 162.849 30.491,163.271 30.381,163.500 30.250 C 163.729 30.119,164.367 30.004,164.917 29.994 C 165.467 29.985,166.067 29.912,166.250 29.833 C 166.898 29.555,190.377 29.633,190.780 29.915 M224.491 29.854 C 228.540 30.386,230.671 31.504,231.828 33.704 L 232.378 34.750 232.373 37.762 C 232.369 40.463,232.333 40.853,232.018 41.544 C 231.825 41.968,231.667 42.414,231.667 42.536 C 231.667 42.658,231.478 42.943,231.248 43.170 C 231.018 43.397,230.737 43.688,230.623 43.817 C 229.757 44.796,228.917 45.446,227.917 45.910 C 224.708 47.400,225.155 47.361,211.917 47.302 L 200.417 47.250 199.660 46.877 C 198.504 46.307,198.468 46.093,198.381 39.255 C 198.297 32.721,198.479 30.839,199.270 30.048 L 199.652 29.667 211.359 29.667 C 219.067 29.667,223.553 29.731,224.491 29.854 M349.378 36.131 C 347.886 36.172,347.650 36.219,347.498 36.503 C 347.380 36.724,347.339 42.497,347.371 54.595 L 347.417 72.363 347.824 72.693 C 348.383 73.145,370.803 73.035,372.886 72.569 C 380.471 70.875,385.425 63.952,385.401 55.083 C 385.391 51.424,384.073 46.619,382.474 44.417 C 382.208 44.050,381.694 43.337,381.331 42.833 C 379.780 40.675,377.010 38.732,374.105 37.762 C 373.659 37.612,373.148 37.412,372.969 37.317 C 372.791 37.221,371.506 36.926,370.114 36.660 L 367.583 36.176 359.333 36.130 C 354.796 36.104,350.316 36.105,349.378 36.131 M98.052 36.589 C 97.227 37.000,97.197 37.040,96.926 38.118 C 96.639 39.264,96.578 39.414,95.048 42.750 C 93.922 45.206,93.792 45.501,93.151 47.030 C 92.869 47.701,92.455 48.688,92.229 49.224 C 92.003 49.759,91.649 50.472,91.442 50.807 C 91.234 51.142,90.968 51.754,90.849 52.167 C 90.730 52.579,90.573 52.992,90.501 53.083 C 90.429 53.175,89.991 54.082,89.528 55.099 C 89.065 56.116,88.317 57.728,87.866 58.682 C 86.485 61.604,86.000 62.664,86.000 62.757 C 86.000 62.895,84.574 66.026,83.498 68.250 C 81.983 71.381,81.862 72.319,82.925 72.670 C 83.697 72.924,84.775 72.627,84.918 72.121 C 84.976 71.917,85.126 71.525,85.252 71.250 C 85.377 70.975,85.717 70.155,86.007 69.428 C 86.297 68.701,86.598 67.989,86.676 67.845 C 86.754 67.701,86.940 67.283,87.091 66.917 C 87.241 66.550,87.507 65.942,87.682 65.565 C 87.857 65.188,88.000 64.805,88.000 64.713 C 88.000 63.273,89.468 63.083,100.592 63.083 L 109.934 63.083 111.031 63.640 C 112.006 64.135,113.667 66.000,113.667 66.601 C 113.667 66.648,113.967 67.315,114.333 68.083 C 114.700 68.852,115.000 69.578,115.000 69.698 C 115.000 69.994,115.941 71.965,116.210 72.234 C 116.691 72.715,117.662 72.888,118.610 72.660 L 119.505 72.446 119.401 71.848 C 119.344 71.519,119.118 70.861,118.899 70.385 C 118.680 69.910,118.500 69.484,118.500 69.439 C 118.500 69.394,117.461 67.233,116.191 64.637 C 114.922 62.041,113.487 59.092,113.004 58.083 C 111.471 54.882,108.683 49.185,107.150 46.118 C 106.334 44.486,105.667 43.043,105.667 42.909 C 105.667 42.776,105.610 42.667,105.541 42.667 C 105.471 42.667,105.311 42.423,105.184 42.125 C 105.057 41.827,104.696 41.021,104.380 40.333 C 103.721 38.896,103.642 38.716,103.171 37.579 C 102.566 36.117,99.996 35.620,98.052 36.589 M283.485 36.236 C 283.432 36.290,282.944 36.414,282.402 36.510 C 281.860 36.607,281.096 36.805,280.705 36.950 C 280.313 37.096,279.947 37.169,279.891 37.113 C 279.835 37.057,279.633 37.122,279.441 37.256 C 279.249 37.390,278.978 37.501,278.838 37.502 C 278.698 37.503,278.142 37.728,277.602 38.002 C 277.062 38.276,276.518 38.500,276.393 38.500 C 276.269 38.500,276.167 38.570,276.167 38.655 C 276.167 38.741,276.014 38.859,275.828 38.918 C 275.642 38.977,275.293 39.208,275.054 39.430 C 274.814 39.652,274.543 39.833,274.451 39.833 C 274.083 39.833,271.000 42.677,271.000 43.017 C 271.000 43.077,270.877 43.228,270.727 43.352 C 270.198 43.791,268.870 46.138,268.426 47.417 C 268.267 47.875,268.072 48.374,267.994 48.526 C 267.514 49.448,267.303 51.795,267.382 55.323 C 267.457 58.627,267.534 59.302,268.034 61.000 C 268.341 62.044,269.346 64.019,270.125 65.110 C 270.331 65.399,270.500 65.702,270.500 65.783 C 270.500 65.954,272.448 67.974,273.425 68.818 C 274.837 70.036,277.324 71.402,279.000 71.881 C 281.825 72.687,282.510 72.834,283.438 72.834 C 284.000 72.834,285.302 72.980,286.331 73.159 C 288.256 73.494,288.223 73.495,290.583 72.990 C 290.950 72.912,291.813 72.843,292.500 72.838 C 294.382 72.823,297.208 72.040,299.167 70.991 C 299.487 70.819,300.125 70.500,300.583 70.282 C 303.875 68.719,306.813 65.111,308.143 61.000 C 310.739 52.974,308.690 45.771,302.210 40.137 C 301.078 39.153,296.992 37.273,295.083 36.858 C 294.625 36.758,293.912 36.590,293.500 36.483 C 292.718 36.282,283.662 36.058,283.485 36.236 M33.750 36.493 C 23.066 36.563,19.801 36.632,19.408 36.796 C 18.689 37.098,18.510 37.926,18.644 40.333 C 18.702 41.387,18.712 48.663,18.667 56.500 C 18.568 73.423,18.469 72.474,20.354 72.739 C 21.441 72.892,21.399 73.203,21.496 64.383 C 21.560 58.612,21.636 56.463,21.782 56.318 C 22.174 55.926,24.873 55.782,32.659 55.737 C 40.001 55.696,40.584 55.671,40.784 55.398 C 41.057 55.025,41.057 53.207,40.784 52.715 L 40.579 52.347 32.248 52.268 C 22.535 52.177,21.875 52.132,21.655 51.552 C 21.385 50.843,21.458 40.288,21.735 39.909 C 22.073 39.447,25.422 39.336,38.313 39.363 C 50.321 39.387,49.210 39.539,49.190 37.871 C 49.170 36.240,50.746 36.381,33.750 36.493 M291.750 39.395 C 292.850 39.512,293.914 39.696,294.114 39.804 C 294.314 39.912,294.654 40.000,294.870 40.000 C 295.900 40.000,298.453 41.221,300.000 42.455 C 303.753 45.446,305.993 51.267,305.341 56.333 C 304.886 59.876,304.377 61.466,302.943 63.833 C 301.448 66.301,298.292 68.595,295.250 69.424 C 294.700 69.574,294.079 69.765,293.870 69.847 C 292.642 70.333,286.668 70.494,284.500 70.099 C 282.727 69.777,280.833 69.218,280.504 68.921 C 280.350 68.781,280.117 68.666,279.987 68.666 C 279.857 68.666,279.412 68.441,279.000 68.167 C 278.587 67.892,278.137 67.666,278.000 67.664 C 277.862 67.661,277.398 67.342,276.967 66.955 C 276.537 66.567,275.769 65.912,275.261 65.500 C 274.754 65.087,274.266 64.543,274.177 64.289 C 274.088 64.036,273.905 63.786,273.769 63.734 C 273.425 63.602,272.574 61.779,272.044 60.040 C 271.615 58.632,271.600 58.449,271.606 54.583 L 271.612 50.583 272.129 49.115 C 273.006 46.623,275.873 42.833,276.882 42.833 C 277.026 42.833,277.192 42.683,277.250 42.500 C 277.308 42.317,277.424 42.167,277.508 42.167 C 277.592 42.167,278.055 41.919,278.538 41.615 C 280.677 40.272,283.152 39.558,286.417 39.340 C 289.148 39.158,289.570 39.162,291.750 39.395 M371.250 39.820 C 373.627 40.404,374.184 40.584,375.333 41.139 C 378.565 42.699,380.765 45.228,381.771 48.537 C 382.566 51.154,382.894 55.278,382.489 57.583 C 382.393 58.133,382.247 59.033,382.166 59.583 C 381.958 60.992,380.887 64.067,380.512 64.333 C 380.447 64.379,380.160 64.762,379.873 65.183 C 378.777 66.795,375.926 68.819,374.354 69.102 C 374.022 69.161,373.656 69.285,373.540 69.377 C 373.425 69.468,372.862 69.604,372.290 69.677 C 371.718 69.751,370.688 69.887,370.000 69.981 C 369.307 70.076,365.367 70.155,361.158 70.159 L 353.566 70.167 352.517 69.485 C 351.658 68.927,351.398 68.647,351.085 67.943 L 350.703 67.083 350.812 54.750 L 350.921 42.417 351.296 41.651 C 351.544 41.145,351.991 40.649,352.619 40.184 L 353.568 39.481 361.992 39.548 C 367.876 39.595,370.668 39.677,371.250 39.820 M100.006 42.220 C 100.199 42.466,100.479 42.667,100.628 42.667 C 101.462 42.667,102.181 43.538,103.443 46.074 C 104.129 47.454,104.833 48.846,105.007 49.167 C 106.892 52.644,108.647 57.228,108.258 57.657 C 108.116 57.814,108.000 58.129,108.000 58.357 C 108.000 58.596,107.797 58.966,107.520 59.231 L 107.039 59.692 99.728 59.629 C 92.148 59.563,91.462 59.501,91.258 58.857 C 91.077 58.289,91.792 56.436,94.289 51.000 C 94.436 50.679,94.650 50.192,94.764 49.917 C 97.103 44.286,98.219 41.951,98.766 41.551 C 99.094 41.311,99.437 41.496,100.006 42.220 " stroke="none" fill="#d0d0d0" fill-rule="evenodd"></path><path id="path1" d="M0.000 51.000 L 0.000 102.000 200.000 102.000 L 400.000 102.000 400.000 51.000 L 400.000 0.000 200.000 0.000 L 0.000 0.000 0.000 51.000 M226.333 23.783 C 226.838 23.891,227.925 24.101,228.750 24.250 C 233.005 25.017,236.719 27.345,238.071 30.093 C 238.339 30.638,238.650 31.196,238.762 31.333 C 240.589 33.576,240.274 41.979,238.217 45.833 C 236.984 48.144,233.137 51.167,231.429 51.167 C 231.230 51.167,230.976 51.257,230.866 51.367 C 230.655 51.578,229.698 51.870,228.167 52.191 C 227.116 52.411,226.833 52.584,226.833 53.008 C 226.833 53.349,228.032 55.655,228.614 56.432 C 228.826 56.716,229.000 57.072,229.000 57.224 C 229.000 57.376,229.069 57.500,229.152 57.500 C 229.293 57.500,229.945 58.425,230.750 59.768 C 230.933 60.074,231.451 60.870,231.901 61.537 C 232.351 62.204,233.008 63.178,233.360 63.700 C 233.712 64.223,234.005 64.710,234.011 64.784 C 234.017 64.857,234.275 65.254,234.584 65.667 C 234.894 66.079,235.462 66.942,235.847 67.583 C 236.232 68.225,236.799 69.106,237.107 69.542 C 237.415 69.978,237.667 70.397,237.667 70.475 C 237.667 70.552,237.817 70.751,238.000 70.917 C 238.183 71.083,238.333 71.289,238.333 71.374 C 238.333 71.460,238.487 71.730,238.674 71.974 C 238.862 72.217,239.350 72.867,239.758 73.417 C 240.167 73.967,240.697 74.541,240.936 74.692 L 241.371 74.968 240.901 75.276 C 240.383 75.615,233.028 75.833,230.400 75.587 C 229.102 75.465,228.385 74.982,229.118 74.723 C 229.556 74.568,230.167 73.978,230.167 73.709 C 230.167 73.472,229.894 72.963,228.497 70.583 C 228.066 69.850,227.390 68.688,226.994 68.000 C 226.341 66.864,224.877 64.548,223.644 62.700 C 223.382 62.306,223.167 61.906,223.167 61.811 C 223.167 61.717,222.918 61.327,222.614 60.945 C 222.310 60.563,221.731 59.688,221.327 59.000 C 220.922 58.313,220.309 57.337,219.963 56.833 C 219.617 56.329,219.334 55.847,219.334 55.761 C 219.333 55.675,219.190 55.450,219.016 55.261 C 218.841 55.072,218.556 54.654,218.381 54.333 C 217.735 53.145,217.929 53.167,208.312 53.167 L 199.707 53.167 199.479 53.708 C 199.294 54.147,199.254 56.014,199.270 63.509 C 199.291 73.642,199.293 73.665,200.309 74.567 C 201.337 75.480,200.023 75.718,194.367 75.642 C 189.337 75.574,189.049 75.500,189.898 74.491 C 190.860 73.348,190.820 73.811,190.859 63.536 C 190.891 55.061,190.866 53.991,190.627 53.627 L 190.360 53.220 182.972 53.130 C 173.047 53.011,171.833 53.135,171.833 54.272 C 171.833 54.338,171.507 54.885,171.107 55.488 C 170.708 56.090,169.990 57.221,169.512 58.000 C 169.034 58.779,168.136 60.219,167.516 61.199 C 165.592 64.242,164.708 65.657,163.547 67.548 C 162.678 68.962,161.447 70.918,160.563 72.289 C 159.758 73.537,159.844 74.297,160.830 74.640 C 161.399 74.839,161.458 75.023,161.058 75.355 C 160.699 75.653,151.866 75.782,150.399 75.511 C 149.050 75.261,148.993 75.145,149.771 74.212 C 150.136 73.775,151.076 72.442,151.860 71.250 C 154.429 67.344,156.167 64.663,156.167 64.607 C 156.167 64.538,157.880 61.903,158.295 61.333 C 158.462 61.104,158.852 60.504,159.162 60.000 C 159.472 59.496,160.294 58.241,160.988 57.211 C 163.705 53.181,163.905 52.167,161.981 52.167 C 161.779 52.167,161.194 52.044,160.681 51.894 C 155.536 50.387,152.982 48.444,151.497 44.906 C 151.307 44.453,151.082 43.956,150.996 43.800 C 150.225 42.393,149.967 36.278,150.576 33.833 C 151.994 28.139,156.074 24.881,162.917 23.976 C 163.558 23.891,164.421 23.758,164.833 23.680 C 166.060 23.449,225.237 23.549,226.333 23.783 M165.417 30.502 C 163.988 30.669,162.443 31.001,162.258 31.180 C 162.171 31.264,161.927 31.333,161.717 31.333 C 161.506 31.333,161.333 31.392,161.333 31.464 C 161.333 31.536,161.106 31.729,160.829 31.893 C 156.703 34.330,157.448 42.596,162.000 44.896 C 162.321 45.058,162.771 45.297,163.000 45.426 C 163.229 45.556,163.611 45.663,163.849 45.664 C 164.087 45.666,164.537 45.798,164.849 45.958 C 165.600 46.344,190.150 46.416,190.533 46.033 C 190.861 45.706,190.849 31.004,190.521 30.609 C 190.279 30.316,167.810 30.220,165.417 30.502 M199.563 30.532 C 199.261 31.016,199.136 43.958,199.418 45.602 C 199.542 46.330,199.582 46.332,211.417 46.321 C 226.293 46.308,227.035 46.197,229.700 43.590 C 231.430 41.898,231.760 40.900,231.725 37.468 C 231.681 33.208,230.617 31.871,226.342 30.702 C 225.043 30.346,199.778 30.186,199.563 30.532 M49.515 34.789 C 49.707 35.294,49.758 40.330,49.578 41.046 C 49.430 41.637,49.081 41.621,48.558 41.000 C 47.736 40.024,47.619 40.015,34.667 39.985 C 27.623 39.968,22.716 40.021,22.417 40.116 L 21.917 40.274 21.873 45.724 L 21.829 51.173 22.289 51.359 C 23.720 51.938,39.087 51.645,40.258 51.017 C 41.344 50.435,41.461 50.626,41.600 53.222 C 41.772 56.410,41.330 58.022,40.469 57.345 C 39.324 56.444,39.020 56.415,30.833 56.436 C 26.662 56.446,22.950 56.524,22.583 56.610 L 21.917 56.765 21.873 64.688 L 21.830 72.612 22.522 73.297 L 23.214 73.982 22.732 74.113 C 22.467 74.185,21.466 74.233,20.508 74.220 C 16.359 74.164,16.256 74.078,16.404 70.750 C 16.563 67.163,16.507 39.343,16.339 38.083 C 15.944 35.131,14.766 35.333,32.307 35.333 C 47.182 35.333,47.932 35.299,48.661 34.576 C 49.029 34.210,49.322 34.283,49.515 34.789 M294.667 35.321 C 301.438 36.739,305.631 39.667,309.006 45.333 C 310.872 48.465,311.798 56.274,310.660 59.268 C 310.572 59.499,310.500 59.906,310.500 60.172 C 310.500 60.676,310.367 61.023,309.308 63.288 C 308.955 64.043,308.667 64.695,308.667 64.739 C 308.667 65.989,303.376 70.913,300.951 71.920 C 300.328 72.178,299.780 72.452,299.733 72.528 C 299.685 72.604,299.520 72.667,299.365 72.668 C 299.210 72.668,298.858 72.786,298.583 72.930 C 298.308 73.074,297.783 73.259,297.417 73.342 C 297.050 73.425,296.037 73.661,295.167 73.867 C 293.268 74.317,284.056 74.456,283.642 74.042 C 283.527 73.927,283.179 73.833,282.869 73.833 C 282.302 73.833,280.373 73.410,279.750 73.149 C 279.567 73.072,279.117 72.902,278.750 72.772 C 273.846 71.024,270.659 68.118,268.111 63.065 C 265.949 58.780,266.030 50.553,268.279 46.067 C 269.704 43.224,272.113 40.309,274.083 39.044 C 274.542 38.750,274.992 38.448,275.083 38.374 C 276.599 37.149,280.813 35.640,284.000 35.181 C 284.688 35.082,285.438 34.969,285.667 34.931 C 286.977 34.710,292.992 34.971,294.667 35.321 M104.213 35.480 C 104.317 35.584,104.241 35.829,103.999 36.169 C 103.439 36.954,103.377 36.784,106.795 43.833 C 107.617 45.529,108.643 47.667,109.075 48.583 C 109.977 50.498,111.302 53.261,111.553 53.750 C 112.145 54.905,114.925 60.642,115.066 61.000 C 115.120 61.137,115.233 61.362,115.317 61.500 C 115.401 61.637,115.773 62.387,116.145 63.167 C 118.186 67.443,120.532 72.282,120.670 72.500 C 120.757 72.637,120.972 73.029,121.147 73.371 L 121.466 73.991 120.858 74.108 C 118.378 74.586,113.495 74.016,113.937 73.300 C 114.104 73.030,114.045 72.215,113.813 71.583 C 113.418 70.511,112.322 68.035,111.821 67.083 C 111.531 66.533,111.184 65.876,111.050 65.623 C 110.916 65.369,110.557 64.898,110.253 64.575 L 109.699 63.988 99.558 64.036 C 93.980 64.062,89.288 64.147,89.131 64.224 C 88.861 64.356,87.667 66.640,87.667 67.022 C 87.667 67.119,87.566 67.398,87.442 67.641 C 86.607 69.285,85.500 72.098,85.500 72.576 C 85.500 72.827,85.647 73.239,85.828 73.492 L 86.155 73.952 85.736 74.143 C 84.878 74.534,80.654 74.248,79.889 73.747 C 79.325 73.378,79.394 72.833,80.237 71.011 C 80.908 69.560,82.304 66.460,82.945 65.000 C 83.085 64.679,83.463 63.854,83.783 63.167 C 84.903 60.763,85.000 60.546,85.000 60.458 C 85.000 60.409,85.487 59.344,86.083 58.090 C 86.679 56.836,87.167 55.766,87.167 55.713 C 87.167 55.660,87.494 54.934,87.895 54.100 C 88.295 53.266,88.935 51.871,89.318 51.000 C 89.700 50.129,90.195 49.042,90.418 48.583 C 90.642 48.125,91.472 46.250,92.264 44.417 C 93.056 42.583,93.878 40.739,94.091 40.319 C 94.772 38.975,95.178 37.610,95.186 36.638 C 95.195 35.554,95.222 35.531,96.750 35.323 C 98.055 35.146,104.004 35.271,104.213 35.480 M370.613 35.331 C 373.247 35.569,375.891 36.386,378.615 37.806 C 382.412 39.785,386.180 45.331,386.909 50.011 C 386.972 50.418,387.168 51.523,387.345 52.467 C 387.811 54.954,387.733 56.634,387.009 59.667 C 386.911 60.079,386.716 60.904,386.576 61.500 C 386.362 62.409,385.930 63.676,385.439 64.833 C 383.320 69.834,378.467 73.299,372.502 74.070 C 369.968 74.398,348.174 74.458,346.597 74.141 L 345.704 73.962 346.355 73.291 L 347.006 72.620 346.961 54.818 L 346.917 37.016 346.292 36.376 C 345.637 35.705,345.527 35.417,345.875 35.277 C 346.252 35.125,368.877 35.174,370.613 35.331 M286.333 40.001 C 284.193 40.195,281.360 40.967,280.758 41.521 C 280.671 41.601,280.471 41.667,280.314 41.667 C 279.638 41.667,276.669 44.168,275.594 45.645 C 273.190 48.946,272.290 55.204,273.597 59.531 C 273.727 59.961,273.833 60.396,273.833 60.499 C 273.833 62.463,277.718 66.662,280.908 68.146 C 282.095 68.698,282.955 68.948,285.615 69.517 C 289.157 70.275,297.521 68.798,298.833 67.184 C 298.879 67.128,299.217 66.859,299.583 66.586 C 300.331 66.031,302.500 63.840,302.500 63.641 C 302.500 63.570,302.781 63.003,303.125 62.381 C 303.756 61.240,303.964 60.612,304.466 58.333 C 304.943 56.174,304.749 50.516,304.180 49.946 C 304.081 49.848,304.000 49.583,304.000 49.359 C 304.000 49.134,303.779 48.493,303.510 47.934 C 303.240 47.374,302.975 46.804,302.920 46.667 C 302.593 45.847,299.777 42.667,299.378 42.667 C 299.319 42.667,299.117 42.530,298.927 42.364 C 296.887 40.567,291.421 39.542,286.333 40.001 M353.668 40.498 C 353.212 41.350,353.121 42.815,352.995 51.417 C 352.923 56.367,352.838 61.617,352.807 63.083 C 352.747 65.874,353.109 68.606,353.610 69.159 C 353.837 69.410,367.695 69.466,370.917 69.229 C 375.777 68.871,379.127 66.511,380.942 62.167 C 381.897 59.879,382.523 55.525,382.198 53.417 C 382.099 52.775,381.971 51.763,381.913 51.168 C 381.855 50.573,381.749 50.011,381.677 49.918 C 381.605 49.826,381.504 49.477,381.453 49.143 C 381.402 48.809,381.167 48.127,380.930 47.627 C 380.694 47.127,380.500 46.661,380.500 46.591 C 380.500 46.268,378.271 43.660,377.475 43.052 C 374.213 40.558,372.026 40.168,361.298 40.167 C 354.033 40.167,353.841 40.175,353.668 40.498 M98.784 42.296 C 98.628 42.468,98.500 42.667,98.500 42.738 C 98.500 42.809,98.394 43.103,98.264 43.391 C 97.972 44.044,96.746 46.825,96.306 47.833 C 95.863 48.851,95.619 49.391,95.015 50.687 C 94.732 51.294,94.500 51.838,94.500 51.895 C 94.500 51.952,94.237 52.567,93.917 53.261 C 93.596 53.956,93.333 54.563,93.333 54.610 C 93.333 54.657,93.108 55.182,92.833 55.776 C 92.558 56.370,92.333 56.947,92.333 57.058 C 92.333 57.169,92.216 57.427,92.072 57.632 C 91.195 58.885,91.611 58.953,100.292 58.981 C 107.371 59.003,107.445 58.989,106.928 57.793 C 106.799 57.495,106.380 56.500,105.999 55.583 C 104.998 53.180,104.968 53.115,102.956 49.000 C 101.948 46.938,100.795 44.752,100.395 44.144 C 99.994 43.536,99.665 42.974,99.663 42.894 C 99.650 42.381,99.067 41.983,98.784 42.296 " stroke="none" fill="#040404" fill-rule="evenodd"></path><path id="path2" d="M164.809 24.413 C 164.765 24.457,164.134 24.578,163.406 24.682 C 162.679 24.786,161.521 25.021,160.833 25.205 C 160.146 25.388,159.433 25.576,159.250 25.621 C 156.434 26.317,152.917 29.306,152.399 31.444 C 152.336 31.704,152.116 32.270,151.910 32.702 C 149.761 37.214,151.224 45.398,154.705 48.333 C 156.026 49.447,158.053 50.618,159.221 50.943 C 159.695 51.075,160.458 51.296,160.917 51.433 C 161.375 51.571,162.028 51.744,162.368 51.818 C 164.401 52.261,164.286 53.292,161.782 57.063 C 160.777 58.577,160.402 59.160,158.500 62.164 C 157.996 62.961,157.377 63.882,157.125 64.212 C 156.873 64.541,156.667 64.851,156.667 64.901 C 156.667 64.950,156.450 65.311,156.185 65.703 C 155.920 66.096,155.270 67.092,154.740 67.917 C 154.211 68.742,153.291 70.156,152.696 71.061 C 150.559 74.308,150.792 74.873,154.343 75.047 C 158.462 75.249,159.564 74.938,159.704 73.534 C 159.777 72.807,161.321 69.890,162.121 68.970 C 162.255 68.816,162.488 68.466,162.640 68.192 C 163.538 66.574,163.416 66.769,165.890 62.967 C 166.409 62.170,166.833 61.482,166.833 61.440 C 166.833 61.397,167.246 60.749,167.750 60.000 C 168.254 59.251,168.667 58.604,168.667 58.562 C 168.667 58.521,168.805 58.283,168.974 58.035 C 169.143 57.787,169.468 57.283,169.696 56.917 C 171.477 54.059,172.241 53.015,172.646 52.888 C 173.112 52.741,188.068 52.693,189.750 52.833 C 191.480 52.978,191.417 52.591,191.417 62.917 C 191.417 67.683,191.379 72.182,191.333 72.913 L 191.250 74.242 191.998 74.656 C 193.127 75.279,197.455 75.278,198.342 74.654 C 199.104 74.118,199.164 74.015,198.985 73.545 C 198.770 72.979,198.789 54.415,199.006 53.635 C 199.100 53.296,199.306 52.981,199.464 52.934 C 200.190 52.717,217.087 52.756,217.611 52.975 C 218.156 53.203,220.410 56.384,222.175 59.417 C 222.388 59.783,223.176 61.021,223.926 62.167 C 224.677 63.313,225.423 64.512,225.586 64.833 C 225.748 65.154,226.271 66.017,226.747 66.750 C 228.568 69.554,230.667 73.411,230.667 73.951 C 230.667 74.945,231.886 75.235,235.403 75.073 L 237.889 74.960 238.361 74.443 C 239.098 73.636,238.937 73.127,237.158 70.639 C 236.740 70.055,236.356 69.466,236.304 69.331 C 236.252 69.195,235.652 68.256,234.970 67.246 C 234.289 66.235,233.687 65.298,233.633 65.163 C 233.580 65.027,232.890 63.953,232.101 62.775 C 231.312 61.597,230.667 60.575,230.667 60.504 C 230.667 60.432,230.550 60.277,230.406 60.158 C 230.137 59.935,229.000 58.288,229.000 58.122 C 229.000 58.070,228.625 57.467,228.167 56.782 C 227.708 56.097,227.333 55.486,227.333 55.425 C 227.333 55.364,227.108 54.861,226.833 54.307 C 226.131 52.891,226.414 51.833,227.496 51.833 C 227.828 51.833,230.064 51.257,230.750 50.995 C 234.008 49.750,236.258 48.075,237.180 46.209 C 237.372 45.820,237.588 45.465,237.661 45.420 C 237.733 45.376,237.945 44.944,238.133 44.461 C 240.930 37.246,238.634 29.232,232.980 26.466 C 230.952 25.474,230.768 25.414,228.500 25.006 C 227.446 24.817,226.177 24.588,225.681 24.498 C 224.775 24.333,164.973 24.250,164.809 24.413 M226.615 25.410 C 228.007 25.630,229.296 25.891,229.479 25.989 C 229.662 26.087,229.967 26.167,230.158 26.167 C 230.349 26.167,230.635 26.234,230.794 26.317 C 230.953 26.399,231.578 26.665,232.183 26.908 C 236.030 28.452,238.200 32.084,238.440 37.382 C 238.559 39.999,238.414 41.234,237.731 43.417 C 237.112 45.396,235.078 48.500,234.401 48.500 C 234.292 48.500,234.162 48.605,234.113 48.733 C 234.064 48.861,233.437 49.237,232.720 49.569 C 232.003 49.902,231.139 50.322,230.800 50.503 C 230.461 50.685,230.072 50.833,229.936 50.833 C 229.184 50.833,226.882 51.738,226.440 52.206 C 225.941 52.737,225.944 52.694,226.293 54.333 C 226.431 54.981,227.710 57.357,228.090 57.673 C 228.224 57.783,228.333 57.992,228.333 58.136 C 228.333 58.280,228.513 58.590,228.732 58.824 C 228.952 59.058,229.363 59.690,229.646 60.227 C 229.930 60.764,230.425 61.496,230.747 61.852 C 231.070 62.209,231.333 62.585,231.333 62.687 C 231.333 62.789,231.731 63.407,232.216 64.061 C 233.244 65.444,234.166 66.880,234.168 67.098 C 234.168 67.182,234.505 67.737,234.917 68.333 C 235.328 68.929,235.665 69.497,235.666 69.596 C 235.666 69.695,235.861 69.957,236.099 70.179 C 237.831 71.797,238.013 73.827,236.458 74.160 C 234.764 74.523,231.000 74.241,231.000 73.751 C 231.000 73.656,230.850 73.299,230.667 72.956 C 230.483 72.614,230.333 72.222,230.333 72.084 C 230.333 71.946,230.267 71.833,230.185 71.833 C 230.104 71.833,229.833 71.353,229.583 70.765 C 229.334 70.177,228.875 69.339,228.565 68.902 C 228.254 68.465,228.000 68.046,228.000 67.971 C 228.000 67.896,227.737 67.469,227.417 67.022 C 227.095 66.574,226.833 66.009,226.833 65.761 C 226.833 65.387,226.777 65.329,226.500 65.417 C 226.236 65.501,226.167 65.447,226.167 65.156 C 226.167 64.955,225.854 64.331,225.472 63.770 C 224.512 62.360,224.290 62.027,223.735 61.167 C 223.469 60.754,223.188 60.371,223.110 60.314 C 222.956 60.201,222.608 59.623,222.344 59.041 C 221.810 57.860,218.357 52.942,217.953 52.787 C 216.823 52.353,203.369 52.182,200.121 52.560 C 199.040 52.685,198.622 53.319,198.403 55.167 C 198.252 56.431,198.259 55.680,198.314 65.424 C 198.368 75.047,198.604 74.453,194.787 74.298 C 192.030 74.186,191.677 73.758,192.113 71.047 C 192.491 68.695,192.363 55.326,191.958 54.879 C 191.798 54.702,191.666 54.413,191.666 54.237 C 191.665 53.787,191.091 52.896,190.634 52.636 C 190.335 52.465,188.472 52.405,182.251 52.363 C 173.749 52.307,172.696 52.380,171.992 53.076 C 171.494 53.568,170.000 55.707,170.000 55.928 C 170.000 56.031,169.852 56.249,169.671 56.413 C 169.490 56.577,169.293 56.864,169.234 57.051 C 169.174 57.239,168.946 57.585,168.728 57.821 C 168.509 58.057,168.282 58.399,168.225 58.581 C 168.167 58.763,167.846 59.288,167.511 59.747 C 166.708 60.851,165.333 63.087,165.333 63.289 C 165.333 63.376,165.173 63.591,164.977 63.766 C 164.781 63.940,164.524 64.308,164.406 64.583 C 164.288 64.858,163.923 65.458,163.596 65.916 C 163.268 66.374,163.000 66.808,163.000 66.879 C 163.000 66.951,162.700 67.389,162.333 67.853 C 161.967 68.317,161.667 68.770,161.667 68.860 C 161.667 68.950,161.442 69.350,161.167 69.749 C 160.893 70.148,160.591 70.678,160.497 70.926 C 160.402 71.174,160.188 71.573,160.020 71.813 C 159.852 72.054,159.665 72.457,159.604 72.710 C 159.543 72.962,159.283 73.405,159.026 73.692 L 158.558 74.216 156.463 74.296 C 152.097 74.464,151.396 73.425,153.823 70.381 C 154.688 69.296,154.959 68.892,155.586 67.750 C 155.939 67.108,156.401 66.371,156.613 66.112 C 156.826 65.853,157.046 65.459,157.101 65.237 C 157.157 65.015,157.254 64.833,157.315 64.833 C 157.377 64.833,157.572 64.590,157.748 64.292 C 157.923 63.994,158.390 63.326,158.784 62.807 C 159.178 62.289,159.500 61.821,159.500 61.768 C 159.500 61.557,161.197 58.858,161.505 58.579 C 161.685 58.415,161.833 58.181,161.833 58.059 C 161.833 57.936,161.983 57.742,162.167 57.628 C 162.350 57.513,162.500 57.301,162.500 57.156 C 162.500 57.010,162.688 56.715,162.917 56.500 C 163.146 56.285,163.333 55.949,163.333 55.754 C 163.333 55.559,163.400 55.329,163.482 55.242 C 163.683 55.027,164.167 53.296,164.167 52.792 C 164.167 52.250,163.785 51.957,162.583 51.577 C 162.033 51.403,161.435 51.165,161.255 51.047 C 161.074 50.930,160.802 50.833,160.651 50.833 C 160.352 50.833,159.516 50.488,157.371 49.480 C 155.419 48.563,154.028 47.098,153.041 44.917 C 152.561 43.855,152.399 43.308,151.813 40.771 C 150.918 36.897,152.957 30.080,155.516 28.386 C 155.874 28.150,156.167 27.905,156.167 27.843 C 156.167 27.745,157.975 26.855,158.917 26.490 C 162.859 24.959,164.074 24.909,196.250 24.963 L 224.083 25.009 226.615 25.410 M166.250 29.833 C 166.067 29.912,165.467 29.985,164.917 29.994 C 164.367 30.004,163.729 30.119,163.500 30.250 C 163.271 30.381,162.849 30.491,162.562 30.494 C 162.275 30.497,161.947 30.613,161.833 30.750 C 161.599 31.033,161.702 31.069,162.127 30.853 C 163.698 30.055,166.169 29.917,178.869 29.917 C 189.346 29.917,190.515 29.943,190.757 30.186 C 191.638 31.066,191.828 45.214,190.974 46.276 C 190.599 46.742,188.568 46.833,178.570 46.835 C 167.061 46.837,163.601 46.579,162.592 45.646 C 162.505 45.566,162.340 45.500,162.225 45.500 C 161.526 45.500,159.210 43.305,158.721 42.179 C 157.821 40.107,157.417 35.553,158.083 35.000 C 158.221 34.886,158.333 34.629,158.333 34.429 C 158.333 33.612,159.491 32.228,160.833 31.442 C 161.246 31.201,161.469 31.002,161.330 31.002 C 160.386 30.996,158.167 33.274,158.167 34.249 C 158.167 34.394,158.053 34.685,157.914 34.897 C 157.147 36.067,157.484 40.288,158.509 42.340 C 158.960 43.244,160.390 45.000,160.675 45.000 C 160.754 45.000,161.098 45.189,161.439 45.421 C 161.780 45.652,162.252 45.888,162.488 45.944 C 162.724 46.000,163.019 46.127,163.144 46.226 C 164.432 47.245,165.884 47.347,178.417 47.296 C 192.405 47.239,191.181 47.540,192.153 43.917 C 192.614 42.196,192.329 32.500,191.817 32.500 C 191.734 32.500,191.667 32.326,191.667 32.113 C 191.667 31.452,191.151 30.175,190.780 29.915 C 190.377 29.633,166.898 29.555,166.250 29.833 M199.270 30.048 C 198.479 30.839,198.297 32.721,198.381 39.255 C 198.468 46.093,198.504 46.307,199.660 46.877 L 200.417 47.250 211.917 47.302 C 225.155 47.361,224.708 47.400,227.917 45.910 C 228.917 45.446,229.757 44.796,230.623 43.817 C 230.737 43.688,231.018 43.397,231.248 43.170 C 231.478 42.943,231.667 42.658,231.667 42.536 C 231.667 42.414,231.825 41.968,232.018 41.544 C 232.333 40.853,232.369 40.463,232.373 37.762 L 232.378 34.750 231.828 33.704 C 229.909 30.056,227.935 29.667,211.359 29.667 L 199.652 29.667 199.270 30.048 M225.198 30.133 C 228.500 30.575,230.699 31.909,231.736 34.100 C 232.637 36.002,232.144 42.200,231.059 42.616 C 230.935 42.663,230.833 42.801,230.833 42.921 C 230.833 43.617,227.660 46.000,226.734 46.000 C 226.593 46.000,226.322 46.083,226.132 46.185 C 225.191 46.689,203.691 47.108,200.621 46.683 C 198.774 46.427,198.917 47.109,198.917 38.536 C 198.917 30.296,198.929 30.195,199.918 29.976 C 200.721 29.798,223.768 29.941,225.198 30.133 M284.311 35.673 C 282.155 35.925,277.797 37.246,277.092 37.862 C 277.005 37.938,276.837 38.000,276.720 38.000 C 276.603 38.000,276.084 38.281,275.567 38.625 C 275.050 38.969,274.430 39.380,274.188 39.538 C 273.431 40.036,272.816 40.561,272.189 41.244 C 271.856 41.608,271.387 42.110,271.148 42.359 C 270.908 42.609,270.431 43.249,270.088 43.782 C 269.744 44.314,269.333 44.938,269.175 45.167 C 268.571 46.041,267.738 48.243,267.315 50.083 C 266.717 52.687,267.079 59.320,267.943 61.583 C 268.951 64.223,271.473 67.863,273.075 68.990 C 273.263 69.123,273.454 69.285,273.501 69.350 C 273.783 69.753,276.563 71.378,277.869 71.903 C 280.910 73.127,281.128 73.180,284.750 73.599 C 291.427 74.370,297.381 73.214,302.250 70.202 C 304.957 68.527,308.308 63.794,309.001 60.667 C 309.974 56.278,310.163 53.824,309.688 51.750 C 308.901 48.317,308.626 47.379,308.041 46.137 C 307.475 44.933,306.458 43.430,305.261 42.029 C 304.039 40.598,301.469 38.566,300.083 37.934 C 299.717 37.767,299.192 37.521,298.917 37.388 C 295.687 35.824,289.372 35.082,284.311 35.673 M21.250 35.776 C 19.503 35.893,19.046 36.013,18.506 36.495 L 17.967 36.976 17.975 54.581 C 17.980 64.263,18.029 72.328,18.084 72.501 C 18.296 73.171,20.557 73.890,21.417 73.560 C 21.598 73.491,21.635 71.920,21.620 65.029 L 21.602 56.583 21.506 64.417 C 21.399 73.199,21.441 72.892,20.354 72.739 C 18.469 72.474,18.568 73.423,18.667 56.500 C 18.712 48.663,18.702 41.387,18.644 40.333 C 18.412 36.143,16.876 36.512,34.626 36.495 C 50.503 36.480,49.172 36.355,49.190 37.871 C 49.210 39.539,50.321 39.387,38.313 39.363 C 26.841 39.339,22.139 39.461,21.809 39.791 C 21.649 39.951,21.725 39.960,22.168 39.833 C 23.388 39.483,46.958 39.614,48.057 39.977 L 49.031 40.299 49.266 39.738 C 49.568 39.015,49.568 36.984,49.265 36.261 L 49.031 35.700 35.557 35.710 C 28.147 35.716,21.708 35.745,21.250 35.776 M97.613 35.908 C 96.711 36.230,96.082 37.425,95.590 39.750 C 95.532 40.025,95.235 40.775,94.929 41.417 C 94.382 42.567,93.299 44.969,92.300 47.250 C 91.189 49.787,90.513 51.234,90.002 52.167 C 89.826 52.487,89.679 52.879,89.675 53.037 C 89.670 53.195,89.412 53.833,89.100 54.454 C 88.788 55.075,88.380 55.921,88.192 56.333 C 88.004 56.746,87.434 57.956,86.925 59.022 C 86.416 60.089,86.000 61.020,86.000 61.091 C 86.000 61.163,85.631 61.978,85.179 62.902 C 84.231 64.843,83.167 67.145,83.167 67.254 C 83.167 67.295,82.754 68.183,82.250 69.228 C 80.754 72.328,81.088 73.500,83.468 73.500 L 84.753 73.500 85.108 72.375 C 85.996 69.558,88.450 64.264,89.028 63.917 C 89.620 63.562,109.472 63.275,110.059 63.614 C 111.696 64.558,113.934 68.053,114.489 70.533 C 114.716 71.545,115.406 72.679,116.075 73.137 C 116.906 73.707,119.347 73.675,119.731 73.089 C 120.212 72.354,120.510 73.084,115.549 62.833 C 114.773 61.229,113.948 59.504,113.717 59.000 C 113.486 58.496,113.229 57.971,113.148 57.833 C 113.066 57.696,112.933 57.433,112.852 57.250 C 112.771 57.067,111.842 55.154,110.788 53.000 C 109.017 49.380,108.292 47.884,105.541 42.167 C 103.427 37.773,103.056 36.816,103.261 36.281 C 103.500 35.658,99.124 35.370,97.613 35.908 M347.060 36.308 C 347.116 36.661,347.165 45.168,347.169 55.213 L 347.175 73.477 348.046 73.583 C 350.662 73.902,372.228 73.568,373.561 73.189 C 380.671 71.165,384.460 66.366,386.011 57.420 C 386.981 51.821,383.711 42.828,379.725 40.132 C 379.372 39.894,378.844 39.475,378.551 39.201 C 377.858 38.552,374.881 37.107,373.504 36.751 C 372.910 36.597,372.280 36.394,372.104 36.300 C 371.169 35.799,368.367 35.677,357.687 35.672 L 346.957 35.667 347.060 36.308 M370.114 36.660 C 371.506 36.926,372.791 37.221,372.969 37.317 C 373.148 37.412,373.659 37.612,374.105 37.762 C 377.010 38.732,379.780 40.675,381.331 42.833 C 381.694 43.337,382.208 44.050,382.474 44.417 C 384.073 46.619,385.391 51.424,385.401 55.083 C 385.425 63.952,380.471 70.875,372.886 72.569 C 370.803 73.035,348.383 73.145,347.824 72.693 L 347.417 72.363 347.371 54.595 C 347.339 42.497,347.380 36.724,347.498 36.503 C 347.720 36.089,348.371 36.068,359.333 36.130 L 367.583 36.176 370.114 36.660 M102.161 36.454 C 102.700 36.688,102.889 36.898,103.171 37.579 C 103.642 38.716,103.721 38.896,104.380 40.333 C 104.696 41.021,105.057 41.827,105.184 42.125 C 105.311 42.423,105.471 42.667,105.541 42.667 C 105.610 42.667,105.667 42.776,105.667 42.909 C 105.667 43.043,106.334 44.486,107.150 46.118 C 108.683 49.185,111.471 54.882,113.004 58.083 C 113.487 59.092,114.922 62.041,116.191 64.637 C 117.461 67.233,118.500 69.394,118.500 69.439 C 118.500 69.484,118.680 69.910,118.899 70.385 C 119.118 70.861,119.344 71.519,119.401 71.848 L 119.505 72.446 118.610 72.660 C 117.662 72.888,116.691 72.715,116.210 72.234 C 115.941 71.965,115.000 69.994,115.000 69.698 C 115.000 69.578,114.700 68.852,114.333 68.083 C 113.967 67.315,113.667 66.648,113.667 66.601 C 113.667 66.000,112.006 64.135,111.031 63.640 L 109.934 63.083 100.592 63.083 C 89.468 63.083,88.000 63.273,88.000 64.713 C 88.000 64.805,87.857 65.188,87.682 65.565 C 87.507 65.942,87.241 66.550,87.091 66.917 C 86.940 67.283,86.754 67.701,86.676 67.845 C 86.598 67.989,86.297 68.701,86.007 69.428 C 85.717 70.155,85.377 70.975,85.252 71.250 C 85.126 71.525,84.976 71.917,84.918 72.121 C 84.775 72.627,83.697 72.924,82.925 72.670 C 81.862 72.319,81.983 71.381,83.498 68.250 C 84.574 66.026,86.000 62.895,86.000 62.757 C 86.000 62.664,86.485 61.604,87.866 58.682 C 88.317 57.728,89.065 56.116,89.528 55.099 C 89.991 54.082,90.429 53.175,90.501 53.083 C 90.573 52.992,90.730 52.579,90.849 52.167 C 90.968 51.754,91.234 51.142,91.442 50.807 C 91.649 50.472,92.003 49.759,92.229 49.224 C 92.455 48.688,92.869 47.701,93.151 47.030 C 93.792 45.501,93.922 45.206,95.048 42.750 C 96.578 39.414,96.639 39.264,96.926 38.118 C 97.372 36.342,99.986 35.512,102.161 36.454 M293.500 36.483 C 293.912 36.590,294.625 36.758,295.083 36.858 C 296.992 37.273,301.078 39.153,302.210 40.137 C 306.321 43.711,308.124 46.746,308.927 51.441 C 309.626 55.529,308.616 61.360,306.679 64.417 C 305.044 66.998,302.652 69.299,300.583 70.282 C 300.125 70.500,299.487 70.819,299.167 70.991 C 297.208 72.040,294.382 72.823,292.500 72.838 C 291.813 72.843,290.950 72.912,290.583 72.990 C 288.223 73.495,288.256 73.494,286.331 73.159 C 285.302 72.980,284.000 72.834,283.438 72.834 C 282.510 72.834,281.825 72.687,279.000 71.881 C 277.324 71.402,274.837 70.036,273.425 68.818 C 272.448 67.974,270.500 65.954,270.500 65.783 C 270.500 65.702,270.331 65.399,270.125 65.110 C 269.346 64.019,268.341 62.044,268.034 61.000 C 267.534 59.302,267.457 58.627,267.382 55.323 C 267.303 51.795,267.514 49.448,267.994 48.526 C 268.072 48.374,268.267 47.875,268.426 47.417 C 268.870 46.138,270.198 43.791,270.727 43.352 C 270.877 43.228,271.000 43.077,271.000 43.017 C 271.000 42.677,274.083 39.833,274.451 39.833 C 274.543 39.833,274.814 39.652,275.054 39.430 C 275.293 39.208,275.642 38.977,275.828 38.918 C 276.014 38.859,276.167 38.741,276.167 38.655 C 276.167 38.570,276.269 38.500,276.393 38.500 C 276.518 38.500,277.062 38.276,277.602 38.002 C 278.142 37.728,278.698 37.503,278.838 37.502 C 278.978 37.501,279.249 37.390,279.441 37.256 C 279.633 37.122,279.835 37.057,279.891 37.113 C 279.947 37.169,280.313 37.096,280.705 36.950 C 281.096 36.805,281.860 36.607,282.402 36.510 C 282.944 36.414,283.432 36.290,283.485 36.236 C 283.662 36.058,292.718 36.282,293.500 36.483 M286.417 39.340 C 283.152 39.558,280.677 40.272,278.538 41.615 C 278.055 41.919,277.592 42.167,277.508 42.167 C 277.424 42.167,277.308 42.317,277.250 42.500 C 277.192 42.683,277.026 42.833,276.882 42.833 C 275.873 42.833,273.006 46.623,272.129 49.115 L 271.612 50.583 271.606 54.583 C 271.600 58.449,271.615 58.632,272.044 60.040 C 272.574 61.779,273.425 63.602,273.769 63.734 C 273.905 63.786,274.088 64.036,274.177 64.289 C 274.266 64.543,274.754 65.087,275.261 65.500 C 275.769 65.912,276.537 66.567,276.967 66.955 C 277.398 67.342,277.862 67.661,278.000 67.664 C 278.137 67.666,278.587 67.892,279.000 68.167 C 279.412 68.441,279.857 68.666,279.987 68.666 C 280.117 68.666,280.350 68.781,280.504 68.921 C 280.833 69.218,282.727 69.777,284.500 70.099 C 286.668 70.494,292.642 70.333,293.870 69.847 C 294.079 69.765,294.700 69.574,295.250 69.424 C 300.314 68.044,303.999 63.923,305.018 58.500 C 305.648 55.149,305.533 52.483,304.627 49.417 C 303.258 44.782,298.189 39.912,294.839 40.013 C 294.577 40.021,294.797 40.138,295.417 40.322 C 296.658 40.691,298.535 41.594,299.417 42.247 C 300.276 42.883,302.663 45.357,302.665 45.613 C 302.666 45.721,302.765 45.909,302.884 46.030 C 304.564 47.731,305.650 54.074,304.915 57.901 C 304.386 60.661,304.259 61.004,302.709 63.901 C 301.648 65.883,298.152 68.349,295.250 69.162 C 294.517 69.368,293.585 69.640,293.179 69.768 C 292.076 70.115,285.854 70.091,284.456 69.735 C 282.331 69.194,281.562 68.953,280.719 68.565 C 280.243 68.346,279.808 68.167,279.753 68.167 C 279.048 68.167,275.067 64.636,274.283 63.315 C 272.722 60.685,272.479 59.674,272.388 55.417 C 272.250 48.964,273.682 45.568,277.730 42.750 C 277.993 42.567,278.418 42.246,278.674 42.038 C 279.589 41.294,281.652 40.474,284.250 39.819 C 285.965 39.388,291.492 39.446,293.917 39.922 C 294.365 40.010,294.383 39.999,294.087 39.814 C 293.732 39.592,290.235 39.170,289.000 39.200 C 288.587 39.210,287.425 39.273,286.417 39.340 M352.619 40.184 C 351.991 40.649,351.544 41.145,351.296 41.651 L 350.921 42.417 350.812 54.750 L 350.703 67.083 351.085 67.943 C 351.398 68.647,351.658 68.927,352.517 69.485 L 353.566 70.167 361.158 70.159 C 365.367 70.155,369.307 70.076,370.000 69.981 C 370.688 69.887,371.718 69.751,372.290 69.677 C 372.862 69.604,373.425 69.468,373.540 69.377 C 373.656 69.285,374.022 69.161,374.354 69.102 C 375.926 68.819,378.777 66.795,379.873 65.183 C 380.160 64.762,380.447 64.379,380.510 64.333 C 380.663 64.223,381.667 61.853,381.665 61.608 C 381.664 61.503,381.416 61.979,381.115 62.667 C 379.354 66.683,376.375 68.850,371.667 69.542 C 371.071 69.630,366.748 69.734,362.061 69.774 L 353.538 69.847 352.770 68.970 C 351.552 67.577,351.416 67.185,351.448 65.167 C 351.463 64.204,351.521 58.767,351.578 53.083 C 351.675 43.215,351.748 41.833,352.172 41.833 C 352.244 41.833,352.467 41.496,352.666 41.084 C 353.416 39.535,352.797 39.626,361.999 39.724 C 366.446 39.772,370.383 39.852,370.750 39.903 C 371.401 39.993,371.405 39.990,370.917 39.800 C 370.566 39.663,367.893 39.586,361.992 39.543 L 353.568 39.481 352.619 40.184 M372.833 40.396 C 376.494 41.348,379.251 43.561,380.925 46.892 C 381.779 48.590,381.925 48.592,381.134 46.894 C 379.509 43.404,374.782 39.913,371.819 40.014 C 371.598 40.021,372.054 40.193,372.833 40.396 M21.575 45.750 C 21.575 48.867,21.597 50.118,21.625 48.531 C 21.652 46.944,21.652 44.394,21.625 42.864 C 21.597 41.335,21.575 42.633,21.575 45.750 M98.766 41.551 C 98.219 41.951,97.103 44.286,94.764 49.917 C 94.650 50.192,94.436 50.679,94.289 51.000 C 91.792 56.436,91.077 58.289,91.258 58.857 C 91.462 59.501,92.148 59.563,99.728 59.629 L 107.039 59.692 107.520 59.231 C 107.797 58.966,108.000 58.596,108.000 58.357 C 108.000 58.129,108.116 57.814,108.258 57.657 C 108.647 57.228,106.892 52.644,105.007 49.167 C 104.833 48.846,104.129 47.454,103.443 46.074 C 102.181 43.538,101.462 42.667,100.628 42.667 C 100.479 42.667,100.199 42.466,100.006 42.220 C 99.437 41.496,99.094 41.311,98.766 41.551 M99.620 42.125 C 100.013 42.738,100.102 42.843,101.176 43.977 C 101.685 44.514,102.313 45.396,102.571 45.935 C 103.402 47.672,105.624 52.138,106.103 53.035 C 107.137 54.971,107.789 58.374,107.263 59.093 C 106.755 59.789,92.280 59.590,91.568 58.877 C 91.326 58.636,91.354 58.287,91.671 57.583 C 91.754 57.400,92.093 56.575,92.426 55.750 C 92.758 54.925,93.202 53.875,93.414 53.417 C 93.862 52.443,94.363 51.323,94.719 50.500 C 94.858 50.179,95.278 49.223,95.652 48.375 C 96.027 47.527,96.333 46.796,96.333 46.750 C 96.333 46.705,96.567 46.161,96.852 45.542 C 97.137 44.923,97.526 44.079,97.715 43.667 C 98.626 41.685,99.094 41.306,99.620 42.125 M381.762 49.083 C 381.818 49.450,381.935 49.862,382.022 50.000 C 382.214 50.302,382.036 49.262,381.809 48.750 C 381.708 48.522,381.693 48.628,381.762 49.083 M382.276 51.417 C 382.328 51.875,382.424 53.337,382.488 54.667 L 382.604 57.083 382.628 54.917 C 382.642 53.584,382.560 52.333,382.416 51.667 C 382.212 50.729,382.193 50.695,382.276 51.417 M21.694 51.667 C 21.833 52.088,23.354 52.175,32.165 52.264 L 40.580 52.349 40.784 52.716 C 41.057 53.207,41.057 55.025,40.784 55.398 C 40.584 55.671,40.001 55.696,32.659 55.737 C 24.938 55.781,22.174 55.926,21.793 56.307 C 21.654 56.446,21.754 56.447,22.178 56.311 C 23.222 55.977,38.205 55.909,39.443 56.233 C 40.778 56.582,40.917 56.509,41.169 55.321 C 41.403 54.217,41.138 51.922,40.759 51.777 C 40.651 51.735,40.154 51.776,39.656 51.867 C 38.095 52.152,22.287 51.974,21.915 51.667 C 21.646 51.444,21.622 51.444,21.694 51.667 M382.287 57.667 C 382.223 57.896,382.177 58.271,382.184 58.500 C 382.195 58.859,382.219 58.839,382.357 58.358 C 382.446 58.052,382.492 57.677,382.461 57.525 C 382.420 57.331,382.369 57.372,382.287 57.667 M381.851 60.326 C 381.730 60.799,381.666 61.222,381.709 61.265 C 381.821 61.376,382.216 59.898,382.137 59.662 C 382.101 59.554,381.973 59.853,381.851 60.326 " stroke="none" fill="#848484" fill-rule="evenodd"></path><path id="path3" d="M164.833 23.680 C 164.421 23.758,163.558 23.891,162.917 23.976 C 156.074 24.881,151.994 28.139,150.576 33.833 C 149.967 36.278,150.225 42.393,150.996 43.800 C 151.082 43.956,151.307 44.453,151.497 44.906 C 152.982 48.444,155.536 50.387,160.681 51.894 C 161.194 52.044,161.779 52.167,161.981 52.167 C 163.905 52.167,163.705 53.181,160.988 57.211 C 160.294 58.241,159.472 59.496,159.162 60.000 C 158.852 60.504,158.462 61.104,158.295 61.333 C 157.880 61.903,156.167 64.538,156.167 64.607 C 156.167 64.663,154.429 67.344,151.860 71.250 C 151.076 72.442,150.136 73.775,149.771 74.212 C 148.993 75.145,149.050 75.261,150.399 75.511 C 151.866 75.782,160.699 75.653,161.058 75.355 C 161.458 75.023,161.399 74.839,160.830 74.640 C 159.844 74.297,159.758 73.537,160.563 72.289 C 161.447 70.918,162.678 68.962,163.547 67.548 C 164.708 65.657,165.592 64.242,167.516 61.199 C 168.136 60.219,169.034 58.779,169.512 58.000 C 169.990 57.221,170.708 56.090,171.107 55.488 C 171.507 54.885,171.833 54.338,171.833 54.272 C 171.833 53.135,173.047 53.011,182.972 53.130 L 190.360 53.220 190.627 53.627 C 190.866 53.991,190.891 55.061,190.859 63.536 C 190.820 73.811,190.860 73.348,189.898 74.491 C 189.049 75.500,189.337 75.574,194.367 75.642 C 200.023 75.718,201.337 75.480,200.309 74.567 C 199.293 73.665,199.291 73.642,199.270 63.509 C 199.254 56.014,199.294 54.147,199.479 53.708 L 199.707 53.167 208.312 53.167 C 217.929 53.167,217.735 53.145,218.381 54.333 C 218.556 54.654,218.841 55.072,219.016 55.261 C 219.190 55.450,219.333 55.675,219.334 55.761 C 219.334 55.847,219.617 56.329,219.963 56.833 C 220.309 57.337,220.922 58.313,221.327 59.000 C 221.731 59.688,222.310 60.563,222.614 60.945 C 222.918 61.327,223.167 61.717,223.167 61.811 C 223.167 61.906,223.382 62.306,223.644 62.700 C 224.877 64.548,226.341 66.864,226.994 68.000 C 227.390 68.688,228.066 69.850,228.497 70.583 C 229.894 72.963,230.167 73.472,230.167 73.709 C 230.167 73.978,229.556 74.568,229.118 74.723 C 228.385 74.982,229.102 75.465,230.400 75.587 C 233.028 75.833,240.383 75.615,240.901 75.276 L 241.371 74.968 240.936 74.692 C 240.697 74.541,240.167 73.967,239.758 73.417 C 239.350 72.867,238.862 72.217,238.674 71.974 C 238.487 71.730,238.333 71.460,238.333 71.374 C 238.333 71.289,238.183 71.083,238.000 70.917 C 237.817 70.751,237.667 70.552,237.667 70.475 C 237.667 70.397,237.415 69.978,237.107 69.542 C 236.799 69.106,236.232 68.225,235.847 67.583 C 235.462 66.942,234.894 66.079,234.584 65.667 C 234.275 65.254,234.017 64.857,234.011 64.784 C 234.005 64.710,233.712 64.223,233.360 63.700 C 233.008 63.178,232.351 62.204,231.901 61.537 C 231.451 60.870,230.933 60.074,230.750 59.768 C 229.945 58.425,229.293 57.500,229.152 57.500 C 229.069 57.500,229.000 57.376,229.000 57.224 C 229.000 57.072,228.826 56.716,228.614 56.432 C 228.032 55.655,226.833 53.349,226.833 53.008 C 226.833 52.584,227.116 52.411,228.167 52.191 C 229.698 51.870,230.655 51.578,230.866 51.367 C 230.976 51.257,231.230 51.167,231.429 51.167 C 233.137 51.167,236.984 48.144,238.217 45.833 C 240.274 41.979,240.589 33.576,238.762 31.333 C 238.650 31.196,238.339 30.638,238.071 30.093 C 236.719 27.345,233.005 25.017,228.750 24.250 C 227.925 24.101,226.838 23.891,226.333 23.783 C 225.237 23.549,166.060 23.449,164.833 23.680 M225.168 24.172 C 225.488 24.266,226.347 24.421,227.076 24.515 C 234.379 25.456,238.418 29.077,239.335 35.505 C 240.461 43.398,236.676 49.824,230.000 51.353 C 226.607 52.129,225.811 52.728,226.719 53.820 C 226.839 53.965,227.080 54.421,227.254 54.833 C 227.428 55.246,227.930 56.133,228.369 56.804 C 228.808 57.475,229.167 58.058,229.167 58.099 C 229.167 58.276,230.108 59.603,230.374 59.801 C 230.535 59.921,230.667 60.093,230.667 60.183 C 230.667 60.273,230.807 60.550,230.978 60.798 C 231.149 61.047,231.723 61.925,232.253 62.750 C 232.784 63.575,233.605 64.850,234.080 65.583 C 234.554 66.317,235.280 67.442,235.692 68.083 C 236.104 68.725,236.731 69.700,237.085 70.250 C 237.439 70.800,237.790 71.293,237.867 71.345 C 237.943 71.397,238.163 71.734,238.357 72.095 C 238.551 72.455,238.841 72.992,239.001 73.287 C 239.860 74.868,238.974 75.292,234.760 75.317 C 231.551 75.337,229.630 75.018,230.333 74.583 C 230.664 74.379,230.489 73.447,229.932 72.442 C 227.447 67.959,226.313 66.069,223.718 62.084 C 222.277 59.870,222.066 59.532,221.899 59.167 C 221.836 59.029,221.601 58.670,221.378 58.367 C 221.154 58.065,220.734 57.417,220.444 56.927 C 219.409 55.176,218.023 53.211,217.723 53.065 C 217.189 52.806,199.779 52.798,199.426 53.056 C 198.818 53.501,198.573 72.109,199.156 73.577 C 199.655 74.834,199.003 75.137,195.500 75.273 C 193.287 75.358,191.427 75.149,191.050 74.772 C 191.013 74.735,191.061 73.815,191.156 72.728 C 191.642 67.190,191.306 53.651,190.670 53.136 C 190.285 52.824,175.184 52.655,173.110 52.939 C 172.420 53.033,170.167 55.660,170.167 56.370 C 170.167 56.421,169.878 56.902,169.525 57.439 C 168.622 58.815,167.009 61.326,166.417 62.279 C 166.142 62.721,165.767 63.318,165.583 63.606 C 165.400 63.894,165.003 64.531,164.701 65.023 C 164.398 65.514,163.855 66.367,163.493 66.917 C 163.132 67.467,162.787 68.029,162.729 68.167 C 162.670 68.304,162.232 69.017,161.755 69.750 C 160.068 72.346,159.884 72.727,159.761 73.872 L 159.645 74.958 158.711 75.146 C 156.145 75.661,151.567 75.299,151.071 74.540 C 150.634 73.874,150.428 74.234,157.304 63.667 C 157.990 62.612,159.037 61.000,159.630 60.083 C 160.224 59.167,161.183 57.704,161.761 56.833 C 164.092 53.321,164.197 51.899,162.128 51.841 C 160.840 51.806,157.202 50.384,155.587 49.285 C 149.696 45.277,148.927 33.589,154.206 28.310 C 156.301 26.215,158.415 25.338,163.750 24.349 C 165.708 23.986,223.969 23.818,225.168 24.172 M165.448 30.176 C 164.824 30.248,164.082 30.388,163.798 30.487 C 163.515 30.586,163.145 30.667,162.976 30.667 C 162.102 30.667,158.833 32.783,158.833 33.350 C 158.833 33.433,158.640 33.895,158.405 34.376 C 157.081 37.073,158.053 41.948,160.334 44.055 C 162.996 46.514,164.455 46.711,179.500 46.636 C 191.046 46.579,190.855 46.595,191.075 45.713 C 191.584 43.664,191.289 30.929,190.717 30.297 C 190.426 29.976,168.095 29.868,165.448 30.176 M199.428 30.320 C 198.884 30.922,198.610 43.652,199.098 45.713 C 199.306 46.595,199.106 46.580,210.833 46.633 C 223.899 46.691,225.850 46.547,228.094 45.357 C 229.160 44.792,231.333 42.573,231.333 42.050 C 231.333 41.959,231.454 41.643,231.601 41.348 C 232.302 39.942,232.296 35.625,231.590 34.063 C 230.852 32.430,229.797 31.581,227.434 30.719 C 225.271 29.929,200.106 29.572,199.428 30.320 M190.521 30.609 C 190.849 31.004,190.861 45.706,190.533 46.033 C 190.150 46.416,165.600 46.344,164.849 45.958 C 164.537 45.798,164.087 45.666,163.849 45.664 C 163.611 45.663,163.229 45.556,163.000 45.426 C 162.771 45.297,162.321 45.058,162.000 44.896 C 161.202 44.493,159.234 42.484,158.934 41.767 C 157.322 37.908,158.175 33.460,160.829 31.893 C 161.106 31.729,161.333 31.536,161.333 31.464 C 161.333 31.392,161.506 31.333,161.717 31.333 C 161.927 31.333,162.171 31.264,162.258 31.180 C 162.443 31.001,163.988 30.669,165.417 30.502 C 167.810 30.220,190.279 30.316,190.521 30.609 M226.342 30.702 C 230.617 31.871,231.681 33.208,231.725 37.468 C 231.760 40.900,231.430 41.898,229.700 43.590 C 227.035 46.197,226.293 46.308,211.417 46.321 C 199.582 46.332,199.542 46.330,199.418 45.602 C 199.136 43.958,199.261 31.016,199.563 30.532 C 199.778 30.186,225.043 30.346,226.342 30.702 M48.661 34.576 C 47.932 35.299,47.182 35.333,32.307 35.333 C 14.766 35.333,15.944 35.131,16.339 38.083 C 16.507 39.343,16.563 67.163,16.404 70.750 C 16.256 74.078,16.359 74.164,20.508 74.220 C 21.466 74.233,22.467 74.185,22.732 74.113 L 23.214 73.982 22.522 73.297 L 21.830 72.612 21.873 64.688 L 21.917 56.765 22.583 56.610 C 22.950 56.524,26.662 56.446,30.833 56.436 C 39.020 56.415,39.324 56.444,40.469 57.345 C 41.330 58.022,41.772 56.410,41.600 53.222 C 41.461 50.626,41.344 50.435,40.258 51.017 C 39.087 51.645,23.720 51.938,22.289 51.359 L 21.829 51.173 21.873 45.724 L 21.917 40.274 22.417 40.116 C 22.716 40.021,27.623 39.968,34.667 39.985 C 47.619 40.015,47.736 40.024,48.558 41.000 C 49.504 42.125,49.692 41.613,49.690 37.918 C 49.687 34.626,49.435 33.807,48.661 34.576 M285.667 34.931 C 285.438 34.969,284.688 35.082,284.000 35.181 C 280.813 35.640,276.599 37.149,275.083 38.374 C 274.992 38.448,274.542 38.750,274.083 39.044 C 272.113 40.309,269.704 43.224,268.279 46.067 C 266.030 50.553,265.949 58.780,268.111 63.065 C 270.659 68.118,273.846 71.024,278.750 72.772 C 279.117 72.902,279.567 73.072,279.750 73.149 C 280.373 73.410,282.302 73.833,282.869 73.833 C 283.179 73.833,283.527 73.927,283.642 74.042 C 284.056 74.456,293.268 74.317,295.167 73.867 C 296.037 73.661,297.050 73.425,297.417 73.342 C 297.783 73.259,298.308 73.074,298.583 72.930 C 298.858 72.786,299.210 72.668,299.365 72.668 C 299.520 72.667,299.685 72.604,299.733 72.528 C 299.780 72.452,300.328 72.178,300.951 71.920 C 303.376 70.913,308.667 65.989,308.667 64.739 C 308.667 64.695,308.955 64.043,309.308 63.288 C 310.367 61.023,310.500 60.676,310.500 60.172 C 310.500 59.906,310.572 59.499,310.660 59.268 C 311.798 56.274,310.872 48.465,309.006 45.333 C 305.631 39.667,301.438 36.739,294.667 35.321 C 292.992 34.971,286.977 34.710,285.667 34.931 M49.248 35.770 C 49.584 36.575,49.601 39.798,49.272 40.248 C 49.051 40.550,49.017 40.548,48.147 40.155 L 47.250 39.750 34.734 39.750 C 24.370 39.750,22.170 39.789,21.942 39.979 C 21.638 40.231,21.515 51.003,21.811 51.470 C 22.200 52.083,37.909 52.167,40.518 51.570 C 41.246 51.403,41.625 54.028,41.147 55.926 C 40.934 56.770,40.837 56.798,39.507 56.403 C 38.000 55.956,22.237 56.116,21.896 56.583 C 21.690 56.865,21.656 58.195,21.673 65.333 L 21.693 73.750 20.388 73.740 C 18.978 73.730,18.155 73.435,17.826 72.820 C 17.512 72.233,17.576 36.936,17.892 36.485 C 18.481 35.644,18.052 35.668,33.061 35.651 C 46.184 35.636,48.297 35.574,48.956 35.190 C 48.978 35.177,49.109 35.438,49.248 35.770 M96.750 35.323 C 95.222 35.531,95.195 35.554,95.186 36.638 C 95.178 37.610,94.772 38.975,94.091 40.319 C 93.878 40.739,93.056 42.583,92.264 44.417 C 91.472 46.250,90.642 48.125,90.418 48.583 C 90.195 49.042,89.700 50.129,89.318 51.000 C 88.935 51.871,88.295 53.266,87.895 54.100 C 87.494 54.934,87.167 55.660,87.167 55.713 C 87.167 55.766,86.679 56.836,86.083 58.090 C 85.487 59.344,85.000 60.409,85.000 60.458 C 85.000 60.546,84.903 60.763,83.783 63.167 C 83.463 63.854,83.085 64.679,82.945 65.000 C 82.304 66.460,80.908 69.560,80.237 71.011 C 79.394 72.833,79.325 73.378,79.889 73.747 C 80.654 74.248,84.878 74.534,85.736 74.143 L 86.155 73.952 85.828 73.492 C 85.647 73.239,85.500 72.827,85.500 72.576 C 85.500 72.098,86.607 69.285,87.442 67.641 C 87.566 67.398,87.667 67.119,87.667 67.022 C 87.667 66.640,88.861 64.356,89.131 64.224 C 89.288 64.147,93.980 64.062,99.558 64.036 L 109.699 63.988 110.253 64.575 C 110.557 64.898,110.916 65.369,111.050 65.623 C 111.184 65.876,111.531 66.533,111.821 67.083 C 112.322 68.035,113.418 70.511,113.813 71.583 C 114.045 72.215,114.104 73.030,113.937 73.300 C 113.495 74.016,118.378 74.586,120.858 74.108 L 121.466 73.991 121.147 73.371 C 120.972 73.029,120.757 72.637,120.670 72.500 C 120.532 72.282,118.186 67.443,116.145 63.167 C 115.773 62.387,115.401 61.637,115.317 61.500 C 115.233 61.362,115.120 61.137,115.066 61.000 C 114.925 60.642,112.145 54.905,111.553 53.750 C 111.302 53.261,109.977 50.498,109.075 48.583 C 108.643 47.667,107.617 45.529,106.795 43.833 C 103.377 36.784,103.439 36.954,103.999 36.169 C 104.241 35.829,104.317 35.584,104.213 35.480 C 104.004 35.271,98.055 35.146,96.750 35.323 M292.667 35.436 C 301.399 36.813,307.458 41.710,309.347 48.917 C 310.570 53.585,310.540 56.005,309.195 61.083 C 308.004 65.581,304.529 69.589,299.982 71.710 C 297.581 72.830,297.176 73.000,296.901 73.000 C 296.761 73.000,296.294 73.104,295.865 73.231 C 292.996 74.081,286.686 74.224,282.917 73.525 C 280.790 73.131,280.072 72.962,279.925 72.820 C 279.838 72.736,279.654 72.667,279.515 72.667 C 278.970 72.667,276.334 71.402,274.833 70.420 C 271.036 67.937,268.311 63.993,267.231 59.417 C 266.873 57.897,266.802 51.505,267.131 50.363 C 268.141 46.861,268.464 46.085,269.672 44.250 C 270.035 43.700,270.379 43.153,270.437 43.034 C 270.494 42.914,270.739 42.612,270.979 42.361 C 271.220 42.110,271.733 41.570,272.120 41.161 C 273.935 39.240,277.655 37.123,280.668 36.296 C 284.596 35.217,289.193 34.888,292.667 35.436 M345.875 35.277 C 345.527 35.417,345.637 35.705,346.292 36.376 L 346.917 37.016 346.961 54.818 L 347.006 72.620 346.355 73.291 L 345.704 73.962 346.597 74.141 C 348.174 74.458,369.968 74.398,372.502 74.070 C 378.467 73.299,383.320 69.834,385.439 64.833 C 385.930 63.676,386.362 62.409,386.576 61.500 C 386.716 60.904,386.911 60.079,387.009 59.667 C 387.733 56.634,387.811 54.954,387.345 52.467 C 387.168 51.523,386.972 50.418,386.909 50.011 C 386.180 45.331,382.412 39.785,378.615 37.806 C 377.275 37.108,376.499 36.770,375.417 36.416 C 373.167 35.679,372.296 35.483,370.613 35.331 C 368.877 35.174,346.252 35.125,345.875 35.277 M102.917 35.651 C 103.364 35.750,103.412 35.820,103.371 36.324 C 103.296 37.239,103.480 37.704,105.921 42.750 C 106.674 44.308,107.834 46.708,108.498 48.083 C 109.162 49.458,110.511 52.233,111.497 54.250 C 112.482 56.267,113.715 58.817,114.237 59.917 C 114.760 61.017,115.483 62.517,115.846 63.250 C 116.593 64.761,119.471 70.767,119.890 71.692 C 120.564 73.175,120.284 73.622,118.585 73.780 C 116.058 74.016,115.031 73.294,114.250 70.735 C 113.838 69.384,112.562 66.695,112.079 66.162 C 111.944 66.013,111.832 65.821,111.831 65.737 C 111.829 65.652,111.426 65.149,110.933 64.619 L 110.038 63.655 99.698 63.702 C 89.656 63.749,89.345 63.760,88.913 64.083 C 88.191 64.625,84.780 72.842,85.077 73.323 C 85.131 73.411,85.029 73.562,84.849 73.658 C 84.133 74.042,81.333 73.701,81.333 73.230 C 81.333 73.097,81.211 72.802,81.062 72.574 C 80.647 71.941,80.840 71.280,82.337 68.204 C 83.084 66.671,83.755 65.267,83.830 65.083 C 83.904 64.900,84.356 63.925,84.833 62.917 C 85.310 61.908,85.851 60.683,86.035 60.193 C 86.218 59.703,86.617 58.864,86.920 58.327 C 87.224 57.790,87.527 57.178,87.594 56.967 C 87.661 56.756,88.042 55.889,88.441 55.041 C 88.840 54.192,89.167 53.417,89.167 53.318 C 89.167 53.220,89.729 51.977,90.417 50.556 C 91.104 49.136,91.667 47.942,91.667 47.904 C 91.667 47.866,91.892 47.358,92.167 46.776 C 92.442 46.194,92.667 45.663,92.667 45.596 C 92.667 45.451,93.783 43.026,94.015 42.667 C 94.104 42.529,94.223 42.275,94.280 42.102 C 94.338 41.929,94.550 41.475,94.753 41.093 C 94.956 40.711,95.249 39.878,95.403 39.241 C 96.094 36.386,96.488 35.776,97.750 35.614 C 98.593 35.506,102.386 35.533,102.917 35.651 M371.517 35.886 C 372.122 36.032,372.797 36.225,373.017 36.315 C 373.237 36.405,373.942 36.638,374.583 36.832 C 376.996 37.562,379.760 39.399,381.417 41.372 C 381.783 41.809,382.217 42.306,382.380 42.475 C 382.911 43.028,384.505 45.867,384.771 46.736 C 384.914 47.202,385.173 47.932,385.346 48.357 C 385.519 48.783,385.782 49.833,385.930 50.690 C 386.078 51.548,386.229 52.299,386.266 52.359 C 387.700 54.683,384.920 65.155,382.083 68.108 C 381.533 68.681,380.928 69.322,380.739 69.533 C 379.921 70.444,378.963 71.202,378.218 71.528 C 377.777 71.721,377.229 72.009,377.000 72.168 C 374.866 73.648,372.433 73.864,358.622 73.802 L 347.161 73.750 347.122 55.167 C 347.090 39.904,347.043 36.513,346.858 36.187 C 346.668 35.854,346.668 35.767,346.858 35.641 C 347.290 35.353,370.252 35.581,371.517 35.886 M286.917 39.676 C 279.855 40.033,274.425 44.065,272.998 50.012 C 272.464 52.238,272.455 57.556,272.982 59.583 C 274.131 64.003,277.620 67.556,282.250 69.021 C 286.207 70.273,292.658 70.335,295.039 69.145 C 295.199 69.065,295.447 69.000,295.591 69.000 C 297.103 69.000,301.732 65.572,302.708 63.731 C 302.848 63.466,303.227 62.756,303.550 62.153 C 304.883 59.662,305.481 54.368,304.781 51.250 C 304.303 49.119,304.188 48.759,303.586 47.500 C 300.767 41.608,295.706 39.232,286.917 39.676 M291.917 39.999 C 294.650 40.351,297.879 41.441,298.927 42.364 C 299.117 42.530,299.319 42.667,299.378 42.667 C 299.777 42.667,302.593 45.847,302.920 46.667 C 302.975 46.804,303.240 47.374,303.510 47.934 C 303.779 48.493,304.000 49.134,304.000 49.359 C 304.000 49.583,304.081 49.848,304.180 49.946 C 305.424 51.190,304.719 59.496,303.125 62.381 C 302.781 63.003,302.500 63.570,302.500 63.641 C 302.500 63.840,300.331 66.031,299.583 66.586 C 299.217 66.859,298.879 67.128,298.833 67.184 C 297.521 68.798,289.157 70.275,285.615 69.517 C 282.955 68.948,282.095 68.698,280.908 68.146 C 277.718 66.662,273.833 62.463,273.833 60.499 C 273.833 60.396,273.727 59.961,273.597 59.531 C 272.290 55.204,273.190 48.946,275.594 45.645 C 276.669 44.168,279.638 41.667,280.314 41.667 C 280.471 41.667,280.671 41.601,280.758 41.521 C 282.015 40.364,288.204 39.519,291.917 39.999 M353.463 40.125 C 353.137 40.496,352.667 41.421,352.667 41.689 C 352.667 41.803,352.498 42.075,352.292 42.294 L 351.917 42.693 351.869 51.805 C 351.843 56.816,351.806 62.267,351.786 63.917 C 351.757 66.331,351.799 67.000,352.000 67.342 C 352.711 68.551,352.948 68.916,353.277 69.314 L 353.638 69.750 361.861 69.694 C 372.107 69.624,373.581 69.456,376.168 68.060 C 379.521 66.250,381.574 62.934,382.189 58.333 C 383.611 47.688,379.262 41.107,370.083 40.013 C 367.325 39.684,353.769 39.776,353.463 40.125 M370.250 40.351 C 373.255 40.720,375.544 41.575,377.475 43.052 C 378.271 43.660,380.500 46.268,380.500 46.591 C 380.500 46.661,380.694 47.127,380.930 47.627 C 381.167 48.127,381.402 48.809,381.453 49.143 C 381.504 49.477,381.605 49.826,381.677 49.918 C 381.749 50.011,381.855 50.573,381.913 51.168 C 381.971 51.763,382.099 52.775,382.198 53.417 C 382.523 55.525,381.897 59.879,380.942 62.167 C 379.127 66.511,375.777 68.871,370.917 69.229 C 367.695 69.466,353.837 69.410,353.610 69.159 C 353.109 68.606,352.747 65.874,352.807 63.083 C 352.838 61.617,352.923 56.367,352.995 51.417 C 353.121 42.815,353.212 41.350,353.668 40.498 C 353.877 40.107,367.287 39.988,370.250 40.351 M98.709 42.047 C 98.522 42.250,98.205 42.792,98.004 43.250 C 97.803 43.708,97.501 44.383,97.333 44.750 C 97.165 45.117,96.606 46.392,96.090 47.583 C 94.896 50.343,94.948 50.222,94.368 51.500 C 94.097 52.096,93.453 53.596,92.936 54.833 C 92.419 56.071,91.885 57.296,91.748 57.555 C 90.890 59.188,91.020 59.218,99.282 59.302 C 106.938 59.381,107.018 59.375,107.306 58.743 C 107.732 57.809,106.062 53.244,103.730 48.965 C 103.145 47.892,102.666 46.917,102.666 46.799 C 102.665 46.575,101.932 45.463,100.279 43.179 C 99.113 41.568,99.135 41.583,98.709 42.047 M99.663 42.894 C 99.665 42.974,99.994 43.536,100.395 44.144 C 100.795 44.752,101.948 46.938,102.956 49.000 C 104.968 53.115,104.998 53.180,105.999 55.583 C 106.380 56.500,106.799 57.495,106.928 57.793 C 107.445 58.989,107.371 59.003,100.292 58.981 C 91.611 58.953,91.195 58.885,92.072 57.632 C 92.216 57.427,92.333 57.169,92.333 57.058 C 92.333 56.947,92.558 56.370,92.833 55.776 C 93.108 55.182,93.333 54.657,93.333 54.610 C 93.333 54.563,93.596 53.956,93.917 53.261 C 94.237 52.567,94.500 51.952,94.500 51.895 C 94.500 51.838,94.732 51.294,95.015 50.687 C 95.619 49.391,95.863 48.851,96.306 47.833 C 96.746 46.825,97.972 44.044,98.264 43.391 C 98.394 43.103,98.500 42.809,98.500 42.738 C 98.500 41.970,99.643 42.124,99.663 42.894 " stroke="none" fill="#5c5c5c" fill-rule="evenodd"></path><path id="path4" d="M163.750 24.349 C 156.298 25.730,153.623 27.501,151.768 32.278 C 148.956 39.520,151.285 47.099,157.307 50.298 C 158.846 51.115,158.706 50.880,157.129 50.000 C 154.055 48.283,152.753 46.615,151.602 42.917 C 150.583 39.644,150.717 35.206,151.910 32.702 C 152.116 32.270,152.336 31.704,152.399 31.444 C 152.925 29.273,156.402 26.342,159.333 25.597 C 159.563 25.539,160.162 25.376,160.667 25.235 C 163.606 24.412,162.317 24.445,194.417 24.376 C 216.058 24.330,224.742 24.365,225.583 24.499 C 230.292 25.254,230.752 25.376,232.980 26.466 C 238.634 29.232,240.930 37.246,238.133 44.461 C 237.945 44.944,237.733 45.376,237.661 45.420 C 237.588 45.465,237.372 45.820,237.180 46.209 C 236.650 47.285,235.463 48.476,233.949 49.451 C 233.198 49.935,232.644 50.331,232.717 50.332 C 232.791 50.333,233.466 49.932,234.217 49.442 C 237.707 47.167,239.532 43.236,239.517 38.031 C 239.493 30.164,235.265 25.570,227.076 24.515 C 226.347 24.421,225.488 24.266,225.168 24.172 C 223.969 23.818,165.708 23.986,163.750 24.349 M172.875 29.958 C 175.969 29.984,181.031 29.984,184.125 29.958 C 187.219 29.933,184.688 29.912,178.500 29.912 C 172.313 29.912,169.781 29.933,172.875 29.958 M205.958 29.958 C 209.098 29.984,214.235 29.984,217.375 29.958 C 220.515 29.933,217.946 29.912,211.667 29.912 C 205.387 29.912,202.819 29.933,205.958 29.958 M225.127 30.285 C 225.334 30.324,225.634 30.323,225.794 30.281 C 225.953 30.239,225.783 30.207,225.417 30.209 C 225.050 30.211,224.920 30.245,225.127 30.285 M159.695 32.292 L 159.069 32.917 159.659 32.417 C 159.984 32.142,160.321 31.861,160.408 31.792 C 160.495 31.723,160.511 31.667,160.444 31.667 C 160.376 31.667,160.039 31.948,159.695 32.292 M191.250 38.583 C 191.250 42.250,191.300 44.875,191.360 44.417 C 191.421 43.958,191.471 41.333,191.471 38.583 C 191.471 35.833,191.421 33.208,191.360 32.750 C 191.300 32.292,191.250 34.917,191.250 38.583 M198.887 33.167 C 198.887 33.762,198.917 34.006,198.954 33.708 C 198.991 33.410,198.991 32.923,198.954 32.625 C 198.917 32.327,198.887 32.571,198.887 33.167 M158.527 33.757 C 158.248 34.370,158.301 34.501,158.603 33.944 C 158.744 33.683,158.828 33.439,158.790 33.401 C 158.752 33.363,158.634 33.523,158.527 33.757 M231.953 35.361 C 232.054 36.582,232.138 36.748,232.151 35.750 C 232.157 35.292,232.098 34.817,232.021 34.694 C 231.938 34.564,231.910 34.841,231.953 35.361 M48.000 35.424 L 47.083 35.635 48.050 35.651 C 48.975 35.666,49.026 35.690,49.252 36.208 C 49.381 36.506,49.490 36.665,49.493 36.562 C 49.500 36.365,49.024 35.150,48.956 35.190 C 48.934 35.202,48.504 35.308,48.000 35.424 M157.883 36.000 C 157.883 36.504,157.915 36.710,157.953 36.458 C 157.991 36.206,157.991 35.794,157.953 35.542 C 157.915 35.290,157.883 35.496,157.883 36.000 M285.167 35.408 C 283.910 35.578,284.184 35.591,287.584 35.528 C 292.513 35.436,296.104 36.026,298.917 37.388 C 299.192 37.521,299.717 37.767,300.083 37.934 C 302.915 39.225,306.554 42.976,308.041 46.137 C 308.626 47.379,308.901 48.317,309.688 51.750 C 310.163 53.824,309.974 56.278,309.001 60.667 C 308.308 63.794,304.957 68.527,302.250 70.202 C 297.485 73.150,291.701 74.281,284.750 73.624 C 283.655 73.521,283.476 73.535,283.750 73.706 C 284.632 74.255,293.619 73.905,295.865 73.234 C 296.294 73.105,296.761 73.000,296.901 73.000 C 297.176 73.000,297.581 72.830,299.982 71.710 C 303.956 69.856,306.422 67.342,308.523 63.000 C 309.216 61.569,310.326 56.325,310.323 54.500 C 310.321 53.477,309.878 50.944,309.347 48.917 C 306.889 39.540,296.707 33.852,285.167 35.408 M97.750 35.614 C 96.488 35.776,96.094 36.386,95.403 39.241 C 95.249 39.878,94.956 40.711,94.753 41.093 C 94.550 41.475,94.338 41.929,94.280 42.102 C 94.223 42.275,94.104 42.529,94.015 42.667 C 93.783 43.026,92.667 45.451,92.667 45.596 C 92.667 45.663,92.442 46.194,92.167 46.776 C 91.892 47.358,91.667 47.866,91.667 47.904 C 91.667 47.942,91.104 49.136,90.417 50.556 C 89.729 51.977,89.167 53.220,89.167 53.318 C 89.167 53.417,88.840 54.192,88.441 55.041 C 88.042 55.889,87.661 56.756,87.594 56.967 C 87.527 57.178,87.224 57.790,86.920 58.327 C 86.617 58.864,86.218 59.703,86.035 60.193 C 85.851 60.683,85.310 61.908,84.833 62.917 C 84.356 63.925,83.904 64.900,83.830 65.083 C 83.755 65.267,83.084 66.671,82.337 68.204 C 80.840 71.280,80.647 71.941,81.062 72.574 C 81.211 72.802,81.333 73.097,81.333 73.230 C 81.333 73.386,81.633 73.537,82.175 73.653 C 83.927 74.029,85.392 73.776,84.999 73.167 C 84.862 72.953,84.838 72.959,84.836 73.208 C 84.834 73.461,84.658 73.500,83.508 73.500 C 81.084 73.500,80.745 72.347,82.250 69.228 C 82.754 68.183,83.167 67.295,83.167 67.254 C 83.167 67.145,84.231 64.843,85.179 62.902 C 85.631 61.978,86.000 61.163,86.000 61.091 C 86.000 61.020,86.416 60.089,86.925 59.022 C 87.434 57.956,88.004 56.746,88.192 56.333 C 88.380 55.921,88.788 55.075,89.100 54.454 C 89.412 53.833,89.670 53.195,89.675 53.037 C 89.679 52.879,89.826 52.487,90.002 52.167 C 90.513 51.234,91.189 49.787,92.300 47.250 C 93.299 44.969,94.382 42.567,94.929 41.417 C 95.235 40.775,95.532 40.025,95.590 39.750 C 96.348 36.164,96.757 35.799,100.167 35.658 L 102.583 35.559 100.417 35.555 C 99.225 35.552,98.025 35.579,97.750 35.614 M346.856 35.649 C 346.683 35.759,346.672 35.869,346.809 36.105 C 346.978 36.396,346.990 36.392,346.995 36.043 L 347.000 35.669 357.792 35.625 L 368.583 35.581 357.833 35.543 C 351.921 35.522,346.981 35.570,346.856 35.649 M18.530 35.912 C 17.594 36.428,17.646 35.325,17.645 54.657 C 17.643 67.308,17.696 72.577,17.826 72.820 C 18.550 74.173,22.216 74.230,21.681 72.880 L 21.497 72.417 21.575 72.943 C 21.740 74.061,18.446 73.643,18.084 72.501 C 18.029 72.328,17.980 64.263,17.975 54.581 L 17.967 36.976 18.506 36.495 C 19.047 36.012,19.520 35.888,21.250 35.779 C 21.708 35.750,21.371 35.721,20.500 35.713 C 19.502 35.704,18.774 35.778,18.530 35.912 M45.877 35.786 C 46.131 35.825,46.506 35.824,46.711 35.784 C 46.916 35.744,46.708 35.713,46.250 35.714 C 45.792 35.716,45.624 35.748,45.877 35.786 M103.043 35.847 C 103.250 35.968,103.310 36.149,103.247 36.467 C 103.159 36.915,103.160 36.915,103.336 36.511 C 103.555 36.007,103.437 35.665,103.047 35.672 C 102.765 35.677,102.765 35.685,103.043 35.847 M282.583 35.841 C 282.351 35.946,282.452 35.961,282.917 35.891 C 283.283 35.835,283.615 35.762,283.653 35.728 C 283.796 35.602,282.903 35.696,282.583 35.841 M370.258 35.913 C 371.087 36.026,371.913 36.198,372.095 36.295 C 372.276 36.392,372.910 36.597,373.504 36.751 C 374.881 37.107,377.858 38.552,378.551 39.201 C 378.844 39.475,379.372 39.894,379.725 40.132 C 383.711 42.828,386.981 51.821,386.011 57.420 C 384.691 65.031,381.920 69.430,376.935 71.825 C 373.135 73.650,374.027 73.552,360.583 73.625 C 347.736 73.696,347.093 73.671,347.262 73.112 C 347.346 72.833,347.325 72.794,347.170 72.941 C 347.059 73.045,346.996 73.270,347.028 73.441 C 347.103 73.829,368.602 74.018,371.833 73.659 C 373.620 73.461,376.216 72.711,377.000 72.168 C 377.229 72.009,377.777 71.721,378.218 71.528 C 378.963 71.202,379.921 70.444,380.739 69.533 C 380.928 69.322,381.533 68.681,382.083 68.108 C 384.920 65.155,387.700 54.683,386.266 52.359 C 386.229 52.299,386.078 51.548,385.930 50.690 C 385.782 49.833,385.519 48.783,385.346 48.357 C 385.173 47.932,384.914 47.202,384.771 46.736 C 384.505 45.867,382.911 43.028,382.380 42.475 C 382.217 42.306,381.783 41.809,381.417 41.372 C 379.760 39.399,376.996 37.562,374.583 36.832 C 373.942 36.638,373.237 36.406,373.018 36.316 C 372.302 36.022,370.329 35.666,369.531 35.687 C 368.923 35.702,369.083 35.752,370.258 35.913 M280.750 36.255 C 280.383 36.376,280.196 36.479,280.333 36.485 C 280.471 36.490,280.921 36.389,281.333 36.259 C 281.746 36.129,281.933 36.025,281.750 36.029 C 281.567 36.032,281.117 36.134,280.750 36.255 M278.500 37.083 C 278.271 37.214,278.158 37.322,278.250 37.322 C 278.342 37.322,278.604 37.214,278.833 37.083 C 279.063 36.952,279.175 36.845,279.083 36.845 C 278.992 36.845,278.729 36.952,278.500 37.083 M274.417 39.271 C 274.117 39.526,274.056 39.627,274.264 39.524 C 274.569 39.372,275.142 38.824,274.979 38.839 C 274.945 38.843,274.692 39.037,274.417 39.271 M232.045 39.667 C 232.045 40.079,232.078 40.248,232.118 40.042 C 232.157 39.835,232.157 39.498,232.118 39.292 C 232.078 39.085,232.045 39.254,232.045 39.667 M49.213 39.845 C 49.042 40.299,48.981 40.335,48.668 40.167 C 48.474 40.063,48.231 40.006,48.129 40.040 C 48.026 40.075,48.191 40.205,48.494 40.331 C 49.097 40.581,49.500 40.302,49.500 39.635 C 49.500 39.210,49.435 39.257,49.213 39.845 M286.464 39.623 C 286.948 39.657,287.698 39.656,288.131 39.622 C 288.563 39.588,288.167 39.560,287.250 39.561 C 286.333 39.561,285.980 39.589,286.464 39.623 M290.128 39.621 C 290.428 39.658,290.878 39.657,291.128 39.619 C 291.378 39.581,291.133 39.551,290.583 39.552 C 290.033 39.553,289.828 39.584,290.128 39.621 M22.877 39.786 C 23.131 39.825,23.506 39.824,23.711 39.784 C 23.916 39.744,23.708 39.713,23.250 39.714 C 22.792 39.716,22.624 39.748,22.877 39.786 M357.458 39.792 C 359.498 39.818,362.835 39.818,364.875 39.792 C 366.915 39.765,365.246 39.743,361.167 39.743 C 357.087 39.743,355.419 39.765,357.458 39.792 M353.001 40.525 C 352.725 40.905,352.500 41.320,352.500 41.447 C 352.500 41.574,352.394 41.718,352.265 41.767 C 351.729 41.973,351.679 42.797,351.578 53.083 C 351.521 58.767,351.463 64.204,351.448 65.167 C 351.426 66.539,351.483 67.044,351.711 67.504 C 352.127 68.342,353.475 69.835,353.805 69.823 C 354.000 69.815,353.969 69.766,353.702 69.659 C 353.493 69.575,353.193 69.270,353.036 68.982 C 352.879 68.694,352.589 68.259,352.391 68.016 C 351.754 67.231,351.616 66.300,351.733 63.583 C 351.792 62.208,351.858 56.946,351.879 51.888 C 351.916 42.781,351.920 42.690,352.270 42.305 C 352.464 42.091,352.668 41.724,352.724 41.488 C 352.779 41.252,353.012 40.783,353.241 40.446 C 353.810 39.607,353.621 39.670,353.001 40.525 M369.460 39.951 C 369.668 39.991,369.968 39.990,370.127 39.948 C 370.286 39.906,370.117 39.874,369.750 39.875 C 369.383 39.877,369.253 39.911,369.460 39.951 M281.167 40.750 C 280.938 40.881,280.825 40.988,280.917 40.988 C 281.008 40.988,281.271 40.881,281.500 40.750 C 281.729 40.619,281.842 40.512,281.750 40.512 C 281.658 40.512,281.396 40.619,281.167 40.750 M271.903 41.375 C 271.165 42.180,270.772 42.667,270.859 42.667 C 270.902 42.667,271.293 42.254,271.728 41.750 C 272.586 40.756,272.707 40.497,271.903 41.375 M278.884 41.929 L 278.417 42.358 278.958 41.981 C 279.256 41.774,279.500 41.581,279.500 41.552 C 279.500 41.420,279.316 41.533,278.884 41.929 M378.000 43.052 C 378.000 43.081,378.244 43.325,378.542 43.594 L 379.083 44.083 378.594 43.542 C 378.138 43.037,378.000 42.923,378.000 43.052 M160.000 43.893 C 160.412 44.333,160.900 44.772,161.083 44.869 C 161.267 44.966,161.379 45.012,161.333 44.971 C 161.287 44.930,160.800 44.491,160.250 43.995 L 159.250 43.094 160.000 43.893 M276.059 44.208 C 272.956 47.394,272.262 49.514,272.388 55.417 C 272.479 59.674,272.722 60.685,274.283 63.315 C 275.008 64.537,279.167 68.324,279.167 67.762 C 279.167 67.717,278.731 67.383,278.198 67.022 C 274.265 64.351,272.641 60.821,272.628 54.917 C 272.617 49.760,273.514 46.859,275.800 44.655 C 276.579 43.904,277.248 43.167,277.149 43.167 C 277.108 43.167,276.617 43.635,276.059 44.208 M100.861 44.016 C 101.647 44.981,102.659 46.544,102.663 46.799 C 102.665 46.917,103.145 47.892,103.730 48.965 C 105.081 51.444,106.751 55.294,107.158 56.868 C 107.395 57.788,107.475 57.949,107.486 57.530 C 107.500 56.969,106.544 53.861,106.103 53.035 C 105.620 52.131,103.387 47.641,102.580 45.952 C 102.155 45.062,100.739 43.333,100.436 43.333 C 100.364 43.333,100.555 43.640,100.861 44.016 M198.885 44.250 C 198.886 44.800,198.917 45.005,198.954 44.705 C 198.991 44.406,198.990 43.956,198.952 43.705 C 198.914 43.455,198.884 43.700,198.885 44.250 M229.333 44.514 L 228.583 45.194 229.375 44.577 C 230.069 44.036,230.275 43.832,230.125 43.834 C 230.102 43.834,229.746 44.140,229.333 44.514 M301.667 44.552 C 301.667 44.581,301.910 44.825,302.208 45.094 L 302.750 45.583 302.260 45.042 C 301.804 44.537,301.667 44.423,301.667 44.552 M191.019 45.783 C 191.009 45.985,190.869 46.227,190.708 46.320 C 190.548 46.413,190.501 46.492,190.605 46.495 C 190.901 46.503,191.202 46.045,191.116 45.716 C 191.054 45.476,191.035 45.489,191.019 45.783 M199.019 45.758 C 198.999 46.115,199.282 46.500,199.565 46.500 C 199.656 46.500,199.610 46.406,199.463 46.292 C 199.315 46.177,199.160 45.933,199.117 45.750 C 199.040 45.424,199.038 45.424,199.019 45.758 M96.527 46.257 C 96.248 46.870,96.301 47.001,96.603 46.444 C 96.744 46.183,96.828 45.939,96.790 45.901 C 96.752 45.863,96.634 46.023,96.527 46.257 M165.127 46.451 C 165.334 46.491,165.634 46.490,165.794 46.448 C 165.953 46.406,165.783 46.374,165.417 46.375 C 165.050 46.377,164.920 46.411,165.127 46.451 M107.678 46.583 C 107.678 46.675,107.786 46.938,107.917 47.167 C 108.048 47.396,108.155 47.508,108.155 47.417 C 108.155 47.325,108.048 47.063,107.917 46.833 C 107.786 46.604,107.678 46.492,107.678 46.583 M167.167 46.696 C 167.579 46.758,172.717 46.799,178.583 46.787 C 184.450 46.775,188.650 46.744,187.917 46.718 C 184.927 46.611,166.472 46.592,167.167 46.696 M206.458 46.792 C 209.415 46.817,214.252 46.817,217.208 46.792 C 220.165 46.766,217.746 46.745,211.833 46.745 C 205.921 46.745,203.502 46.766,206.458 46.792 M231.833 50.583 C 231.604 50.714,231.492 50.822,231.583 50.822 C 231.675 50.822,231.938 50.714,232.167 50.583 C 232.396 50.452,232.508 50.345,232.417 50.345 C 232.325 50.345,232.063 50.452,231.833 50.583 M267.052 51.417 C 267.053 51.967,267.084 52.172,267.121 51.872 C 267.158 51.572,267.157 51.122,267.119 50.872 C 267.081 50.622,267.051 50.867,267.052 51.417 M158.917 50.974 C 159.432 51.195,160.296 51.365,160.000 51.188 C 159.862 51.106,159.487 50.992,159.167 50.935 C 158.773 50.865,158.692 50.878,158.917 50.974 M161.000 51.583 C 161.761 51.876,162.060 51.872,161.417 51.577 C 161.142 51.451,160.804 51.351,160.667 51.354 C 160.529 51.356,160.679 51.460,161.000 51.583 M228.667 51.583 C 228.346 51.707,228.196 51.810,228.333 51.813 C 228.471 51.816,228.808 51.715,229.083 51.589 C 229.727 51.295,229.428 51.290,228.667 51.583 M39.917 51.666 C 39.492 51.773,39.537 51.790,40.208 51.776 C 40.644 51.768,41.000 51.702,41.000 51.630 C 41.000 51.477,40.613 51.490,39.917 51.666 M24.795 51.954 C 25.094 51.991,25.544 51.990,25.795 51.952 C 26.045 51.914,25.800 51.884,25.250 51.885 C 24.700 51.886,24.495 51.917,24.795 51.954 M33.627 51.951 C 33.834 51.991,34.134 51.990,34.294 51.948 C 34.453 51.906,34.283 51.874,33.917 51.875 C 33.550 51.877,33.420 51.911,33.627 51.951 M37.292 51.955 C 37.681 51.990,38.319 51.990,38.708 51.955 C 39.098 51.920,38.779 51.892,38.000 51.892 C 37.221 51.892,36.902 51.920,37.292 51.955 M226.886 52.125 C 226.711 52.285,226.660 52.355,226.773 52.280 C 226.886 52.205,227.190 52.080,227.448 52.003 C 227.828 51.889,227.849 51.859,227.560 51.848 C 227.364 51.840,227.061 51.965,226.886 52.125 M41.036 52.250 C 41.038 52.433,41.097 52.808,41.167 53.083 C 41.281 53.532,41.294 53.541,41.297 53.167 C 41.299 52.938,41.240 52.563,41.167 52.333 C 41.062 52.007,41.034 51.989,41.036 52.250 M163.569 52.583 C 163.700 52.835,163.768 53.163,163.721 53.312 C 163.654 53.525,163.670 53.535,163.797 53.357 C 163.994 53.081,163.881 52.581,163.564 52.317 C 163.368 52.155,163.369 52.197,163.569 52.583 M175.718 52.791 C 176.892 52.820,178.767 52.820,179.885 52.791 C 181.002 52.762,180.042 52.739,177.750 52.739 C 175.458 52.739,174.544 52.763,175.718 52.791 M188.208 52.782 C 188.369 52.823,188.631 52.823,188.792 52.782 C 188.952 52.740,188.821 52.705,188.500 52.705 C 188.179 52.705,188.048 52.740,188.208 52.782 M212.375 52.786 C 212.627 52.824,213.040 52.824,213.292 52.786 C 213.544 52.748,213.338 52.717,212.833 52.717 C 212.329 52.717,212.123 52.748,212.375 52.786 M214.958 52.784 C 215.165 52.824,215.502 52.824,215.708 52.784 C 215.915 52.745,215.746 52.712,215.333 52.712 C 214.921 52.712,214.752 52.745,214.958 52.784 M266.896 55.167 C 266.896 56.221,266.923 56.652,266.956 56.125 C 266.990 55.598,266.990 54.735,266.956 54.208 C 266.923 53.681,266.896 54.112,266.896 55.167 M163.200 54.420 C 163.001 54.831,162.873 55.167,162.915 55.167 C 163.028 55.167,163.702 53.813,163.626 53.738 C 163.591 53.703,163.400 54.010,163.200 54.420 M226.912 54.459 C 227.144 54.939,227.333 55.378,227.333 55.434 C 227.333 55.490,227.708 56.097,228.167 56.782 C 228.625 57.467,229.000 58.070,229.000 58.122 C 229.000 58.173,229.258 58.604,229.573 59.079 C 230.186 60.003,230.667 60.494,230.667 60.197 C 230.667 60.099,230.535 59.921,230.374 59.801 C 230.108 59.603,229.167 58.276,229.167 58.099 C 229.167 58.058,228.808 57.475,228.369 56.804 C 227.930 56.133,227.429 55.246,227.256 54.833 C 227.082 54.421,226.839 53.972,226.716 53.835 C 226.593 53.699,226.681 53.979,226.912 54.459 M92.991 54.273 C 92.899 54.515,92.855 54.744,92.893 54.782 C 92.931 54.819,93.041 54.622,93.139 54.342 C 93.355 53.720,93.225 53.659,92.991 54.273 M191.308 62.046 C 191.344 67.177,191.296 71.011,191.177 72.442 C 191.073 73.690,191.017 74.739,191.052 74.774 C 191.618 75.340,196.964 75.485,198.546 74.977 C 199.197 74.768,199.504 74.235,199.224 73.801 C 199.147 73.681,199.040 72.796,198.987 71.833 L 198.890 70.083 198.862 71.614 C 198.846 72.456,198.902 73.325,198.985 73.545 C 199.069 73.765,199.088 74.013,199.027 74.097 C 197.899 75.659,191.096 75.420,191.303 73.826 C 191.432 72.838,191.503 56.294,191.383 55.167 C 191.308 54.458,191.275 57.439,191.308 62.046 M198.892 55.333 C 198.892 56.112,198.920 56.431,198.955 56.042 C 198.990 55.652,198.990 55.015,198.955 54.625 C 198.920 54.235,198.892 54.554,198.892 55.333 M218.775 54.375 C 219.212 55.087,219.875 56.006,220.014 56.092 C 220.104 56.148,219.865 55.737,219.482 55.180 C 219.100 54.623,218.755 54.167,218.717 54.167 C 218.678 54.167,218.705 54.260,218.775 54.375 M161.726 56.885 C 160.328 58.993,157.036 64.081,156.847 64.426 C 156.493 65.070,157.750 63.351,158.500 62.166 C 160.356 59.231,160.772 58.585,161.799 57.038 C 162.376 56.170,162.824 55.435,162.795 55.406 C 162.766 55.377,162.285 56.042,161.726 56.885 M305.042 56.417 C 305.044 56.783,305.078 56.914,305.118 56.706 C 305.158 56.499,305.156 56.199,305.115 56.040 C 305.073 55.880,305.040 56.050,305.042 56.417 M28.542 56.125 C 30.444 56.152,33.556 56.152,35.458 56.125 C 37.360 56.098,35.804 56.076,32.000 56.076 C 28.196 56.076,26.640 56.098,28.542 56.125 M22.794 56.285 C 23.001 56.324,23.301 56.323,23.460 56.281 C 23.620 56.239,23.450 56.207,23.083 56.209 C 22.717 56.211,22.586 56.245,22.794 56.285 M39.583 56.410 C 40.356 56.678,41.000 56.729,41.000 56.524 C 41.000 56.445,40.794 56.386,40.542 56.392 C 40.290 56.398,39.821 56.353,39.500 56.292 C 38.941 56.184,38.944 56.189,39.583 56.410 M169.832 56.707 C 169.344 57.440,169.307 57.576,169.727 57.083 C 170.099 56.649,170.265 56.333,170.123 56.333 C 170.100 56.333,169.968 56.501,169.832 56.707 M220.582 57.125 C 220.822 57.560,221.213 58.142,221.450 58.417 C 221.764 58.780,221.808 58.803,221.612 58.500 C 221.463 58.271,221.109 57.690,220.825 57.208 C 220.181 56.117,219.991 56.052,220.582 57.125 M267.039 58.167 C 267.039 58.487,267.073 58.619,267.115 58.458 C 267.157 58.298,267.157 58.035,267.115 57.875 C 267.073 57.715,267.039 57.846,267.039 58.167 M107.333 58.627 C 107.333 58.727,107.215 58.927,107.071 59.071 C 106.927 59.215,106.887 59.333,106.982 59.333 C 107.193 59.333,107.565 58.676,107.430 58.541 C 107.377 58.488,107.333 58.527,107.333 58.627 M93.458 59.284 C 93.665 59.324,94.002 59.324,94.208 59.284 C 94.415 59.245,94.246 59.212,93.833 59.212 C 93.421 59.212,93.252 59.245,93.458 59.284 M97.552 59.458 C 99.093 59.486,101.568 59.486,103.052 59.458 C 104.536 59.430,103.275 59.408,100.250 59.408 C 97.225 59.408,96.011 59.431,97.552 59.458 M230.667 60.527 C 230.667 60.655,232.328 63.167,232.413 63.167 C 232.450 63.167,232.148 62.627,231.741 61.968 C 231.032 60.817,230.667 60.327,230.667 60.527 M223.667 62.000 C 223.862 62.275,224.060 62.500,224.106 62.500 C 224.152 62.500,224.029 62.275,223.833 62.000 C 223.638 61.725,223.440 61.500,223.394 61.500 C 223.348 61.500,223.471 61.725,223.667 62.000 M232.768 63.821 C 232.941 64.117,233.183 64.442,233.304 64.544 C 233.426 64.645,233.362 64.452,233.162 64.114 C 232.963 63.776,232.722 63.451,232.626 63.391 C 232.530 63.332,232.594 63.526,232.768 63.821 M100.547 63.664 L 110.177 63.750 110.998 64.667 C 111.449 65.171,111.822 65.652,111.826 65.737 C 111.830 65.821,111.944 66.013,112.079 66.162 C 112.562 66.695,113.838 69.384,114.250 70.735 C 115.031 73.294,116.058 74.016,118.585 73.780 C 120.071 73.641,120.170 73.578,120.147 72.774 C 120.137 72.394,120.091 72.230,120.045 72.410 C 119.803 73.364,119.552 73.500,118.033 73.500 C 115.991 73.500,114.960 72.637,114.489 70.533 C 114.198 69.233,112.567 65.888,111.912 65.250 C 111.818 65.158,111.353 64.727,110.878 64.292 L 110.014 63.500 100.465 63.539 L 90.917 63.578 100.547 63.664 M225.107 64.246 C 225.339 64.661,225.561 65.000,225.601 65.000 C 225.718 65.000,225.020 63.699,224.845 63.591 C 224.758 63.536,224.875 63.831,225.107 64.246 M153.831 69.024 C 150.711 73.851,150.671 73.930,151.071 74.540 C 151.775 75.615,159.667 75.686,159.667 74.618 C 159.667 74.294,159.655 74.292,159.338 74.579 C 158.449 75.384,152.612 75.270,151.725 74.431 C 151.036 73.780,151.136 73.431,152.696 71.061 C 153.291 70.156,154.211 68.742,154.740 67.917 C 155.270 67.092,155.924 66.090,156.194 65.690 C 156.464 65.290,156.654 64.932,156.616 64.894 C 156.578 64.855,155.325 66.714,153.831 69.024 M233.667 65.240 C 233.667 65.280,234.239 66.161,234.938 67.198 C 235.637 68.235,236.252 69.195,236.304 69.331 C 236.587 70.069,238.167 72.065,238.167 71.685 C 238.167 71.592,238.068 71.457,237.947 71.383 C 237.739 71.257,237.492 70.895,235.696 68.083 C 234.151 65.664,233.667 64.986,233.667 65.240 M164.058 65.792 C 163.657 66.337,163.292 67.000,163.394 67.000 C 163.434 67.000,163.642 66.719,163.856 66.375 C 164.070 66.031,164.306 65.656,164.381 65.542 C 164.639 65.145,164.395 65.335,164.058 65.792 M378.575 66.375 L 377.917 67.083 378.625 66.425 C 379.284 65.812,379.410 65.667,379.284 65.667 C 379.257 65.667,378.938 65.985,378.575 66.375 M271.500 67.583 C 271.998 68.087,272.443 68.500,272.489 68.500 C 272.534 68.500,272.165 68.087,271.667 67.583 C 271.169 67.079,270.724 66.667,270.678 66.667 C 270.632 66.667,271.002 67.079,271.500 67.583 M227.000 67.333 C 227.196 67.608,227.394 67.833,227.439 67.833 C 227.485 67.833,227.362 67.608,227.167 67.333 C 226.971 67.058,226.773 66.833,226.727 66.833 C 226.681 66.833,226.804 67.058,227.000 67.333 M162.140 68.958 C 161.802 69.362,161.309 70.167,161.401 70.167 C 161.442 70.167,161.704 69.829,161.983 69.417 C 162.503 68.646,162.573 68.443,162.140 68.958 M272.985 69.049 C 273.115 69.214,273.452 69.506,273.735 69.698 L 274.250 70.047 273.831 69.648 C 273.148 68.998,272.691 68.674,272.985 69.049 M371.875 69.448 C 372.035 69.490,372.298 69.490,372.458 69.448 C 372.619 69.406,372.488 69.372,372.167 69.372 C 371.846 69.372,371.715 69.406,371.875 69.448 M284.917 69.826 C 285.237 69.971,286.129 70.065,285.986 69.939 C 285.948 69.905,285.617 69.832,285.250 69.776 C 284.785 69.705,284.684 69.720,284.917 69.826 M359.958 69.791 C 361.815 69.818,364.852 69.818,366.708 69.791 C 368.565 69.765,367.046 69.743,363.333 69.743 C 359.621 69.743,358.102 69.765,359.958 69.791 M228.933 70.668 C 229.183 71.126,229.419 71.470,229.458 71.431 C 229.537 71.352,228.681 69.833,228.557 69.833 C 228.514 69.833,228.684 70.209,228.933 70.668 M238.169 72.038 C 238.168 72.104,238.316 72.404,238.499 72.704 C 238.950 73.443,238.919 73.832,238.361 74.443 L 237.889 74.960 235.403 75.073 C 231.804 75.238,230.916 75.032,230.666 73.974 L 230.534 73.417 230.517 73.948 C 230.508 74.241,230.425 74.527,230.333 74.583 C 229.649 75.006,231.522 75.333,234.627 75.333 C 239.235 75.333,240.059 74.804,238.695 72.719 C 238.407 72.278,238.170 71.971,238.169 72.038 M278.500 72.316 C 278.821 72.501,279.233 72.653,279.417 72.652 C 279.624 72.652,279.530 72.569,279.167 72.432 C 278.026 72.001,277.924 71.984,278.500 72.316 M159.705 73.500 C 159.705 73.821,159.740 73.952,159.782 73.792 C 159.823 73.631,159.823 73.369,159.782 73.208 C 159.740 73.048,159.705 73.179,159.705 73.500 M281.917 73.333 C 282.100 73.412,282.400 73.474,282.583 73.472 C 282.851 73.468,282.835 73.441,282.500 73.333 C 281.930 73.151,281.492 73.151,281.917 73.333 " stroke="none" fill="#7c7c7c" fill-rule="evenodd"></path></g></svg>